<svg width="634" height="59" viewBox="0 0 634 59" fill="none" xmlns="http://www.w3.org/2000/svg">
<rect width="634" height="59" fill="#EDF4F4"/>
<rect x="10" y="10" width="222.512" height="39" rx="3" fill="#D1ED7E"/>
<path d="M20.7727 24.6136V23.3636H29.5V24.6136H25.8409V35H24.4318V24.6136H20.7727ZM32.8338 29.75V35H31.4929V23.3636H32.8338V27.6364H32.9474C33.152 27.1856 33.4588 26.8277 33.8679 26.5625C34.2808 26.2936 34.83 26.1591 35.5156 26.1591C36.1103 26.1591 36.6312 26.2784 37.0781 26.517C37.5251 26.7519 37.8717 27.1136 38.1179 27.6023C38.3679 28.0871 38.4929 28.7045 38.4929 29.4545V35H37.152V29.5455C37.152 28.8523 36.9721 28.3163 36.6122 27.9375C36.2562 27.5549 35.7618 27.3636 35.1293 27.3636C34.6899 27.3636 34.2959 27.4564 33.9474 27.642C33.6027 27.8277 33.33 28.0985 33.1293 28.4545C32.9323 28.8106 32.8338 29.2424 32.8338 29.75ZM40.946 35V26.2727H42.2869V35H40.946ZM41.6278 24.8182C41.3665 24.8182 41.1411 24.7292 40.9517 24.5511C40.7661 24.3731 40.6733 24.1591 40.6733 23.9091C40.6733 23.6591 40.7661 23.4451 40.9517 23.267C41.1411 23.089 41.3665 23 41.6278 23C41.8892 23 42.1127 23.089 42.2983 23.267C42.4877 23.4451 42.5824 23.6591 42.5824 23.9091C42.5824 24.1591 42.4877 24.3731 42.2983 24.5511C42.1127 24.7292 41.8892 24.8182 41.6278 24.8182ZM50.9247 28.2273L49.7202 28.5682C49.6444 28.3674 49.5327 28.1723 49.3849 27.983C49.241 27.7898 49.044 27.6307 48.794 27.5057C48.544 27.3807 48.224 27.3182 47.8338 27.3182C47.2997 27.3182 46.8546 27.4413 46.4986 27.6875C46.1463 27.9299 45.9702 28.2386 45.9702 28.6136C45.9702 28.947 46.0914 29.2102 46.3338 29.4034C46.5762 29.5966 46.955 29.7576 47.4702 29.8864L48.7656 30.2045C49.5459 30.3939 50.1274 30.6837 50.5099 31.0739C50.8925 31.4602 51.0838 31.9583 51.0838 32.5682C51.0838 33.0682 50.9399 33.5152 50.652 33.9091C50.3679 34.303 49.9702 34.6136 49.4588 34.8409C48.9474 35.0682 48.3527 35.1818 47.6747 35.1818C46.7846 35.1818 46.0478 34.9886 45.4645 34.6023C44.8812 34.2159 44.5118 33.6515 44.3565 32.9091L45.6293 32.5909C45.7505 33.0606 45.9796 33.4129 46.3168 33.6477C46.6577 33.8826 47.1027 34 47.652 34C48.277 34 48.7732 33.8674 49.1406 33.6023C49.5118 33.3333 49.6974 33.0114 49.6974 32.6364C49.6974 32.3333 49.5914 32.0795 49.3793 31.875C49.1671 31.6667 48.8414 31.5114 48.402 31.4091L46.9474 31.0682C46.1482 30.8788 45.5611 30.5852 45.1861 30.1875C44.8149 29.786 44.6293 29.2841 44.6293 28.6818C44.6293 28.1894 44.7675 27.7538 45.044 27.375C45.3243 26.9962 45.705 26.6989 46.1861 26.483C46.6709 26.267 47.2202 26.1591 47.8338 26.1591C48.6974 26.1591 49.3755 26.3485 49.8679 26.7273C50.3641 27.1061 50.7164 27.6061 50.9247 28.2273ZM61.3977 26.2727V27.4091H56.875V26.2727H61.3977ZM58.1932 24.1818H59.5341V32.5C59.5341 32.8788 59.589 33.1629 59.6989 33.3523C59.8125 33.5379 59.9564 33.6629 60.1307 33.7273C60.3087 33.7879 60.4962 33.8182 60.6932 33.8182C60.8409 33.8182 60.9621 33.8106 61.0568 33.7955C61.1515 33.7765 61.2273 33.7614 61.2841 33.75L61.5568 34.9545C61.4659 34.9886 61.339 35.0227 61.1761 35.0568C61.0133 35.0947 60.8068 35.1136 60.5568 35.1136C60.178 35.1136 59.8068 35.0322 59.4432 34.8693C59.0833 34.7064 58.7841 34.4583 58.5455 34.125C58.3106 33.7917 58.1932 33.3712 58.1932 32.8636V24.1818ZM66.9801 35.1818C66.1392 35.1818 65.4138 34.9962 64.804 34.625C64.1979 34.25 63.7301 33.7273 63.4006 33.0568C63.0748 32.3826 62.9119 31.5985 62.9119 30.7045C62.9119 29.8106 63.0748 29.0227 63.4006 28.3409C63.7301 27.6553 64.1884 27.1212 64.7756 26.7386C65.3665 26.3523 66.0559 26.1591 66.8438 26.1591C67.2983 26.1591 67.7472 26.2348 68.1903 26.3864C68.6335 26.5379 69.0369 26.7841 69.4006 27.125C69.7642 27.4621 70.054 27.9091 70.2699 28.4659C70.4858 29.0227 70.5938 29.7083 70.5938 30.5227V31.0909H63.8665V29.9318H69.2301C69.2301 29.4394 69.1316 29 68.9347 28.6136C68.7415 28.2273 68.465 27.9223 68.1051 27.6989C67.7491 27.4754 67.3286 27.3636 66.8438 27.3636C66.3097 27.3636 65.8475 27.4962 65.4574 27.7614C65.071 28.0227 64.7737 28.3636 64.5653 28.7841C64.357 29.2045 64.2528 29.6553 64.2528 30.1364V30.9091C64.2528 31.5682 64.3665 32.1269 64.5938 32.5852C64.8248 33.0398 65.1449 33.3864 65.554 33.625C65.9631 33.8598 66.4384 33.9773 66.9801 33.9773C67.3324 33.9773 67.6506 33.928 67.9347 33.8295C68.2225 33.7273 68.4706 33.5758 68.679 33.375C68.8873 33.1705 69.0483 32.9167 69.1619 32.6136L70.4574 32.9773C70.321 33.4167 70.0919 33.803 69.7699 34.1364C69.4479 34.4659 69.0502 34.7235 68.5767 34.9091C68.1032 35.0909 67.571 35.1818 66.9801 35.1818ZM73.3991 26.2727L75.4901 29.8409L77.581 26.2727H79.1264L76.3082 30.6364L79.1264 35H77.581L75.4901 31.6136L73.3991 35H71.8537L74.6264 30.6364L71.8537 26.2727H73.3991ZM84.8352 26.2727V27.4091H80.3125V26.2727H84.8352ZM81.6307 24.1818H82.9716V32.5C82.9716 32.8788 83.0265 33.1629 83.1364 33.3523C83.25 33.5379 83.3939 33.6629 83.5682 33.7273C83.7462 33.7879 83.9337 33.8182 84.1307 33.8182C84.2784 33.8182 84.3996 33.8106 84.4943 33.7955C84.589 33.7765 84.6648 33.7614 84.7216 33.75L84.9943 34.9545C84.9034 34.9886 84.7765 35.0227 84.6136 35.0568C84.4508 35.0947 84.2443 35.1136 83.9943 35.1136C83.6155 35.1136 83.2443 35.0322 82.8807 34.8693C82.5208 34.7064 82.2216 34.4583 81.983 34.125C81.7481 33.7917 81.6307 33.3712 81.6307 32.8636V24.1818ZM94.8977 35.1818C94.0795 35.1818 93.375 34.9886 92.7841 34.6023C92.1932 34.2159 91.7386 33.6837 91.4205 33.0057C91.1023 32.3277 90.9432 31.553 90.9432 30.6818C90.9432 29.7955 91.1061 29.0133 91.4318 28.3352C91.7614 27.6534 92.2197 27.1212 92.8068 26.7386C93.3977 26.3523 94.0871 26.1591 94.875 26.1591C95.4886 26.1591 96.0417 26.2727 96.5341 26.5C97.0265 26.7273 97.4299 27.0455 97.7443 27.4545C98.0587 27.8636 98.2538 28.3409 98.3295 28.8864H96.9886C96.8864 28.4886 96.6591 28.1364 96.3068 27.8295C95.9583 27.5189 95.4886 27.3636 94.8977 27.3636C94.375 27.3636 93.9167 27.5 93.5227 27.7727C93.1326 28.0417 92.8277 28.4223 92.608 28.9148C92.392 29.4034 92.2841 29.9773 92.2841 30.6364C92.2841 31.3106 92.3902 31.8977 92.6023 32.3977C92.8182 32.8977 93.1212 33.286 93.5114 33.5625C93.9053 33.839 94.3674 33.9773 94.8977 33.9773C95.2462 33.9773 95.5625 33.9167 95.8466 33.7955C96.1307 33.6742 96.3712 33.5 96.5682 33.2727C96.7652 33.0455 96.9053 32.7727 96.9886 32.4545H98.3295C98.2538 32.9697 98.0663 33.4337 97.767 33.8466C97.4716 34.2557 97.0795 34.5814 96.5909 34.8239C96.1061 35.0625 95.5417 35.1818 94.8977 35.1818ZM102.858 35.2045C102.305 35.2045 101.803 35.1004 101.352 34.892C100.902 34.6799 100.544 34.375 100.278 33.9773C100.013 33.5758 99.8807 33.0909 99.8807 32.5227C99.8807 32.0227 99.9792 31.6174 100.176 31.3068C100.373 30.9924 100.636 30.7462 100.966 30.5682C101.295 30.3902 101.659 30.2576 102.057 30.1705C102.458 30.0795 102.862 30.0076 103.267 29.9545C103.797 29.8864 104.227 29.8352 104.557 29.8011C104.89 29.7633 105.133 29.7008 105.284 29.6136C105.439 29.5265 105.517 29.375 105.517 29.1591V29.1136C105.517 28.553 105.364 28.1174 105.057 27.8068C104.754 27.4962 104.294 27.3409 103.676 27.3409C103.036 27.3409 102.534 27.4811 102.17 27.7614C101.807 28.0417 101.551 28.3409 101.403 28.6591L100.131 28.2045C100.358 27.6742 100.661 27.2614 101.04 26.9659C101.422 26.6667 101.839 26.4583 102.29 26.3409C102.744 26.2197 103.191 26.1591 103.631 26.1591C103.911 26.1591 104.233 26.1932 104.597 26.2614C104.964 26.3258 105.318 26.4602 105.659 26.6648C106.004 26.8693 106.29 27.178 106.517 27.5909C106.744 28.0038 106.858 28.5568 106.858 29.25V35H105.517V33.8182H105.449C105.358 34.0076 105.206 34.2102 104.994 34.4261C104.782 34.642 104.5 34.8258 104.148 34.9773C103.795 35.1288 103.366 35.2045 102.858 35.2045ZM103.062 34C103.593 34 104.04 33.8958 104.403 33.6875C104.771 33.4792 105.047 33.2102 105.233 32.8807C105.422 32.5511 105.517 32.2045 105.517 31.8409V30.6136C105.46 30.6818 105.335 30.7443 105.142 30.8011C104.953 30.8542 104.733 30.9015 104.483 30.9432C104.237 30.9811 103.996 31.0152 103.761 31.0455C103.53 31.072 103.343 31.0947 103.199 31.1136C102.85 31.1591 102.525 31.233 102.222 31.3352C101.922 31.4337 101.68 31.5833 101.494 31.7841C101.313 31.9811 101.222 32.25 101.222 32.5909C101.222 33.0568 101.394 33.4091 101.739 33.6477C102.087 33.8826 102.528 34 103.062 34ZM110.646 29.75V35H109.305V26.2727H110.601V27.6364H110.714C110.919 27.1932 111.23 26.8371 111.646 26.5682C112.063 26.2955 112.601 26.1591 113.26 26.1591C113.851 26.1591 114.368 26.2803 114.811 26.5227C115.254 26.7614 115.599 27.125 115.845 27.6136C116.091 28.0985 116.214 28.7121 116.214 29.4545V35H114.874V29.5455C114.874 28.8598 114.696 28.3258 114.339 27.9432C113.983 27.5568 113.495 27.3636 112.874 27.3636C112.446 27.3636 112.063 27.4564 111.726 27.642C111.393 27.8277 111.129 28.0985 110.936 28.4545C110.743 28.8106 110.646 29.2424 110.646 29.75ZM123.347 35V23.3636H124.688V27.6591H124.801C124.9 27.5076 125.036 27.3144 125.21 27.0795C125.388 26.8409 125.642 26.6288 125.972 26.4432C126.305 26.2538 126.756 26.1591 127.324 26.1591C128.059 26.1591 128.706 26.3428 129.267 26.7102C129.828 27.0777 130.265 27.5985 130.58 28.2727C130.894 28.947 131.051 29.7424 131.051 30.6591C131.051 31.5833 130.894 32.3845 130.58 33.0625C130.265 33.7367 129.83 34.2595 129.273 34.6307C128.716 34.9981 128.074 35.1818 127.347 35.1818C126.786 35.1818 126.337 35.089 126 34.9034C125.663 34.714 125.403 34.5 125.222 34.2614C125.04 34.0189 124.9 33.8182 124.801 33.6591H124.642V35H123.347ZM124.665 30.6364C124.665 31.2955 124.761 31.8769 124.955 32.3807C125.148 32.8807 125.43 33.2727 125.801 33.5568C126.172 33.8371 126.627 33.9773 127.165 33.9773C127.725 33.9773 128.193 33.8295 128.568 33.5341C128.947 33.2348 129.231 32.8333 129.42 32.3295C129.614 31.822 129.71 31.2576 129.71 30.6364C129.71 30.0227 129.616 29.4697 129.426 28.9773C129.241 28.4811 128.958 28.089 128.58 27.8011C128.205 27.5095 127.733 27.3636 127.165 27.3636C126.619 27.3636 126.161 27.5019 125.79 27.7784C125.419 28.0511 125.138 28.4337 124.949 28.9261C124.759 29.4148 124.665 29.9848 124.665 30.6364ZM136.761 35.1818C135.92 35.1818 135.195 34.9962 134.585 34.625C133.979 34.25 133.511 33.7273 133.182 33.0568C132.856 32.3826 132.693 31.5985 132.693 30.7045C132.693 29.8106 132.856 29.0227 133.182 28.3409C133.511 27.6553 133.97 27.1212 134.557 26.7386C135.148 26.3523 135.837 26.1591 136.625 26.1591C137.08 26.1591 137.528 26.2348 137.972 26.3864C138.415 26.5379 138.818 26.7841 139.182 27.125C139.545 27.4621 139.835 27.9091 140.051 28.4659C140.267 29.0227 140.375 29.7083 140.375 30.5227V31.0909H133.648V29.9318H139.011C139.011 29.4394 138.913 29 138.716 28.6136C138.523 28.2273 138.246 27.9223 137.886 27.6989C137.53 27.4754 137.11 27.3636 136.625 27.3636C136.091 27.3636 135.629 27.4962 135.239 27.7614C134.852 28.0227 134.555 28.3636 134.347 28.7841C134.138 29.2045 134.034 29.6553 134.034 30.1364V30.9091C134.034 31.5682 134.148 32.1269 134.375 32.5852C134.606 33.0398 134.926 33.3864 135.335 33.625C135.744 33.8598 136.22 33.9773 136.761 33.9773C137.114 33.9773 137.432 33.928 137.716 33.8295C138.004 33.7273 138.252 33.5758 138.46 33.375C138.669 33.1705 138.83 32.9167 138.943 32.6136L140.239 32.9773C140.102 33.4167 139.873 33.803 139.551 34.1364C139.229 34.4659 138.831 34.7235 138.358 34.9091C137.884 35.0909 137.352 35.1818 136.761 35.1818ZM152.415 31.4318V26.2727H153.756V35H152.415V33.5227H152.324C152.119 33.9659 151.801 34.3428 151.369 34.6534C150.938 34.9602 150.392 35.1136 149.733 35.1136C149.188 35.1136 148.703 34.9943 148.278 34.7557C147.854 34.5133 147.521 34.1496 147.278 33.6648C147.036 33.1761 146.915 32.5606 146.915 31.8182V26.2727H148.256V31.7273C148.256 32.3636 148.434 32.8712 148.79 33.25C149.15 33.6288 149.608 33.8182 150.165 33.8182C150.498 33.8182 150.837 33.733 151.182 33.5625C151.53 33.392 151.822 33.1307 152.057 32.7784C152.295 32.4261 152.415 31.9773 152.415 31.4318ZM156.212 38.2727V26.2727H157.507V27.6591H157.666C157.765 27.5076 157.901 27.3144 158.075 27.0795C158.253 26.8409 158.507 26.6288 158.837 26.4432C159.17 26.2538 159.621 26.1591 160.189 26.1591C160.924 26.1591 161.571 26.3428 162.132 26.7102C162.693 27.0777 163.13 27.5985 163.445 28.2727C163.759 28.947 163.916 29.7424 163.916 30.6591C163.916 31.5833 163.759 32.3845 163.445 33.0625C163.13 33.7367 162.695 34.2595 162.138 34.6307C161.581 34.9981 160.939 35.1818 160.212 35.1818C159.651 35.1818 159.202 35.089 158.865 34.9034C158.528 34.714 158.268 34.5 158.087 34.2614C157.905 34.0189 157.765 33.8182 157.666 33.6591H157.553V38.2727H156.212ZM157.53 30.6364C157.53 31.2955 157.626 31.8769 157.82 32.3807C158.013 32.8807 158.295 33.2727 158.666 33.5568C159.037 33.8371 159.492 33.9773 160.03 33.9773C160.59 33.9773 161.058 33.8295 161.433 33.5341C161.812 33.2348 162.096 32.8333 162.286 32.3295C162.479 31.822 162.575 31.2576 162.575 30.6364C162.575 30.0227 162.481 29.4697 162.291 28.9773C162.106 28.4811 161.823 28.089 161.445 27.8011C161.07 27.5095 160.598 27.3636 160.03 27.3636C159.484 27.3636 159.026 27.5019 158.655 27.7784C158.284 28.0511 158.003 28.4337 157.814 28.9261C157.625 29.4148 157.53 29.9848 157.53 30.6364ZM174.257 26.2727V27.4091H169.734V26.2727H174.257ZM171.053 24.1818H172.393V32.5C172.393 32.8788 172.448 33.1629 172.558 33.3523C172.672 33.5379 172.816 33.6629 172.99 33.7273C173.168 33.7879 173.356 33.8182 173.553 33.8182C173.7 33.8182 173.821 33.8106 173.916 33.7955C174.011 33.7765 174.087 33.7614 174.143 33.75L174.416 34.9545C174.325 34.9886 174.198 35.0227 174.036 35.0568C173.873 35.0947 173.666 35.1136 173.416 35.1136C173.037 35.1136 172.666 35.0322 172.303 34.8693C171.943 34.7064 171.643 34.4583 171.405 34.125C171.17 33.7917 171.053 33.3712 171.053 32.8636V24.1818ZM179.726 35.1818C178.938 35.1818 178.247 34.9943 177.652 34.6193C177.061 34.2443 176.599 33.7197 176.266 33.0455C175.936 32.3712 175.771 31.5833 175.771 30.6818C175.771 29.7727 175.936 28.9792 176.266 28.3011C176.599 27.6231 177.061 27.0966 177.652 26.7216C178.247 26.3466 178.938 26.1591 179.726 26.1591C180.514 26.1591 181.203 26.3466 181.794 26.7216C182.389 27.0966 182.851 27.6231 183.18 28.3011C183.514 28.9792 183.68 29.7727 183.68 30.6818C183.68 31.5833 183.514 32.3712 183.18 33.0455C182.851 33.7197 182.389 34.2443 181.794 34.6193C181.203 34.9943 180.514 35.1818 179.726 35.1818ZM179.726 33.9773C180.324 33.9773 180.817 33.8239 181.203 33.517C181.589 33.2102 181.875 32.8068 182.061 32.3068C182.247 31.8068 182.339 31.2652 182.339 30.6818C182.339 30.0985 182.247 29.5549 182.061 29.0511C181.875 28.5473 181.589 28.1402 181.203 27.8295C180.817 27.5189 180.324 27.3636 179.726 27.3636C179.127 27.3636 178.635 27.5189 178.249 27.8295C177.862 28.1402 177.576 28.5473 177.391 29.0511C177.205 29.5549 177.112 30.0985 177.112 30.6818C177.112 31.2652 177.205 31.8068 177.391 32.3068C177.576 32.8068 177.862 33.2102 178.249 33.517C178.635 33.8239 179.127 33.9773 179.726 33.9773ZM189.932 32.6136V31.4545L195.045 23.3636H195.886V25.1591H195.318L191.455 31.2727V31.3636H198.341V32.6136H189.932ZM195.409 35V32.2614V31.7216V23.3636H196.75V35H195.409ZM204.266 35.1591C203.41 35.1591 202.68 34.9261 202.078 34.4602C201.476 33.9905 201.016 33.3106 200.697 32.4205C200.379 31.5265 200.22 30.447 200.22 29.1818C200.22 27.9242 200.379 26.8504 200.697 25.9602C201.019 25.0663 201.482 24.3845 202.084 23.9148C202.69 23.4413 203.417 23.2045 204.266 23.2045C205.114 23.2045 205.839 23.4413 206.442 23.9148C207.048 24.3845 207.51 25.0663 207.828 25.9602C208.15 26.8504 208.311 27.9242 208.311 29.1818C208.311 30.447 208.152 31.5265 207.834 32.4205C207.516 33.3106 207.055 33.9905 206.453 34.4602C205.851 34.9261 205.122 35.1591 204.266 35.1591ZM204.266 33.9091C205.114 33.9091 205.773 33.5 206.243 32.6818C206.713 31.8636 206.947 30.697 206.947 29.1818C206.947 28.1742 206.839 27.3163 206.624 26.608C206.411 25.8996 206.105 25.3598 205.703 24.9886C205.305 24.6174 204.826 24.4318 204.266 24.4318C203.425 24.4318 202.768 24.8466 202.294 25.6761C201.821 26.5019 201.584 27.6705 201.584 29.1818C201.584 30.1894 201.69 31.0455 201.902 31.75C202.114 32.4545 202.419 32.9905 202.817 33.358C203.218 33.7254 203.701 33.9091 204.266 33.9091ZM211.064 35.0909C210.784 35.0909 210.543 34.9905 210.342 34.7898C210.142 34.589 210.041 34.3485 210.041 34.0682C210.041 33.7879 210.142 33.5473 210.342 33.3466C210.543 33.1458 210.784 33.0455 211.064 33.0455C211.344 33.0455 211.585 33.1458 211.786 33.3466C211.986 33.5473 212.087 33.7879 212.087 34.0682C212.087 34.2538 212.039 34.4242 211.945 34.5795C211.854 34.7348 211.731 34.8598 211.575 34.9545C211.424 35.0455 211.253 35.0909 211.064 35.0909ZM215.47 35.0909C215.19 35.0909 214.949 34.9905 214.749 34.7898C214.548 34.589 214.447 34.3485 214.447 34.0682C214.447 33.7879 214.548 33.5473 214.749 33.3466C214.949 33.1458 215.19 33.0455 215.47 33.0455C215.75 33.0455 215.991 33.1458 216.192 33.3466C216.393 33.5473 216.493 33.7879 216.493 34.0682C216.493 34.2538 216.446 34.4242 216.351 34.5795C216.26 34.7348 216.137 34.8598 215.982 34.9545C215.83 35.0455 215.66 35.0909 215.47 35.0909ZM219.876 35.0909C219.596 35.0909 219.356 34.9905 219.155 34.7898C218.954 34.589 218.854 34.3485 218.854 34.0682C218.854 33.7879 218.954 33.5473 219.155 33.3466C219.356 33.1458 219.596 33.0455 219.876 33.0455C220.157 33.0455 220.397 33.1458 220.598 33.3466C220.799 33.5473 220.899 33.7879 220.899 34.0682C220.899 34.2538 220.852 34.4242 220.757 34.5795C220.666 34.7348 220.543 34.8598 220.388 34.9545C220.236 35.0455 220.066 35.0909 219.876 35.0909Z" fill="#172D35"/>
<rect x="242.263" y="10" width="222.512" height="39" rx="3" fill="#D1ED7E"/>
<path d="M253.035 24.6136V23.3636H261.763V24.6136H258.104V35H256.695V24.6136H253.035ZM265.097 29.75V35H263.756V23.3636H265.097V27.6364H265.21C265.415 27.1856 265.722 26.8277 266.131 26.5625C266.543 26.2936 267.093 26.1591 267.778 26.1591C268.373 26.1591 268.894 26.2784 269.341 26.517C269.788 26.7519 270.134 27.1136 270.381 27.6023C270.631 28.0871 270.756 28.7045 270.756 29.4545V35H269.415V29.5455C269.415 28.8523 269.235 28.3163 268.875 27.9375C268.519 27.5549 268.025 27.3636 267.392 27.3636C266.953 27.3636 266.559 27.4564 266.21 27.642C265.865 27.8277 265.593 28.0985 265.392 28.4545C265.195 28.8106 265.097 29.2424 265.097 29.75ZM273.209 35V26.2727H274.55V35H273.209ZM273.891 24.8182C273.629 24.8182 273.404 24.7292 273.214 24.5511C273.029 24.3731 272.936 24.1591 272.936 23.9091C272.936 23.6591 273.029 23.4451 273.214 23.267C273.404 23.089 273.629 23 273.891 23C274.152 23 274.375 23.089 274.561 23.267C274.75 23.4451 274.845 23.6591 274.845 23.9091C274.845 24.1591 274.75 24.3731 274.561 24.5511C274.375 24.7292 274.152 24.8182 273.891 24.8182ZM283.187 28.2273L281.983 28.5682C281.907 28.3674 281.795 28.1723 281.648 27.983C281.504 27.7898 281.307 27.6307 281.057 27.5057C280.807 27.3807 280.487 27.3182 280.097 27.3182C279.562 27.3182 279.117 27.4413 278.761 27.6875C278.409 27.9299 278.233 28.2386 278.233 28.6136C278.233 28.947 278.354 29.2102 278.597 29.4034C278.839 29.5966 279.218 29.7576 279.733 29.8864L281.028 30.2045C281.809 30.3939 282.39 30.6837 282.773 31.0739C283.155 31.4602 283.347 31.9583 283.347 32.5682C283.347 33.0682 283.203 33.5152 282.915 33.9091C282.631 34.303 282.233 34.6136 281.722 34.8409C281.21 35.0682 280.615 35.1818 279.937 35.1818C279.047 35.1818 278.311 34.9886 277.727 34.6023C277.144 34.2159 276.775 33.6515 276.619 32.9091L277.892 32.5909C278.013 33.0606 278.242 33.4129 278.579 33.6477C278.92 33.8826 279.365 34 279.915 34C280.54 34 281.036 33.8674 281.403 33.6023C281.775 33.3333 281.96 33.0114 281.96 32.6364C281.96 32.3333 281.854 32.0795 281.642 31.875C281.43 31.6667 281.104 31.5114 280.665 31.4091L279.21 31.0682C278.411 30.8788 277.824 30.5852 277.449 30.1875C277.078 29.786 276.892 29.2841 276.892 28.6818C276.892 28.1894 277.03 27.7538 277.307 27.375C277.587 26.9962 277.968 26.6989 278.449 26.483C278.934 26.267 279.483 26.1591 280.097 26.1591C280.96 26.1591 281.638 26.3485 282.131 26.7273C282.627 27.1061 282.979 27.6061 283.187 28.2273ZM293.66 26.2727V27.4091H289.138V26.2727H293.66ZM290.456 24.1818H291.797V32.5C291.797 32.8788 291.852 33.1629 291.962 33.3523C292.075 33.5379 292.219 33.6629 292.393 33.7273C292.571 33.7879 292.759 33.8182 292.956 33.8182C293.104 33.8182 293.225 33.8106 293.32 33.7955C293.414 33.7765 293.49 33.7614 293.547 33.75L293.82 34.9545C293.729 34.9886 293.602 35.0227 293.439 35.0568C293.276 35.0947 293.07 35.1136 292.82 35.1136C292.441 35.1136 292.07 35.0322 291.706 34.8693C291.346 34.7064 291.047 34.4583 290.808 34.125C290.573 33.7917 290.456 33.3712 290.456 32.8636V24.1818ZM299.243 35.1818C298.402 35.1818 297.677 34.9962 297.067 34.625C296.461 34.25 295.993 33.7273 295.663 33.0568C295.338 32.3826 295.175 31.5985 295.175 30.7045C295.175 29.8106 295.338 29.0227 295.663 28.3409C295.993 27.6553 296.451 27.1212 297.038 26.7386C297.629 26.3523 298.319 26.1591 299.106 26.1591C299.561 26.1591 300.01 26.2348 300.453 26.3864C300.896 26.5379 301.3 26.7841 301.663 27.125C302.027 27.4621 302.317 27.9091 302.533 28.4659C302.748 29.0227 302.856 29.7083 302.856 30.5227V31.0909H296.129V29.9318H301.493C301.493 29.4394 301.394 29 301.197 28.6136C301.004 28.2273 300.728 27.9223 300.368 27.6989C300.012 27.4754 299.591 27.3636 299.106 27.3636C298.572 27.3636 298.11 27.4962 297.72 27.7614C297.334 28.0227 297.036 28.3636 296.828 28.7841C296.62 29.2045 296.516 29.6553 296.516 30.1364V30.9091C296.516 31.5682 296.629 32.1269 296.856 32.5852C297.088 33.0398 297.408 33.3864 297.817 33.625C298.226 33.8598 298.701 33.9773 299.243 33.9773C299.595 33.9773 299.913 33.928 300.197 33.8295C300.485 33.7273 300.733 33.5758 300.942 33.375C301.15 33.1705 301.311 32.9167 301.425 32.6136L302.72 32.9773C302.584 33.4167 302.355 33.803 302.033 34.1364C301.711 34.4659 301.313 34.7235 300.839 34.9091C300.366 35.0909 299.834 35.1818 299.243 35.1818ZM305.662 26.2727L307.753 29.8409L309.844 26.2727H311.389L308.571 30.6364L311.389 35H309.844L307.753 31.6136L305.662 35H304.116L306.889 30.6364L304.116 26.2727H305.662ZM317.098 26.2727V27.4091H312.575V26.2727H317.098ZM313.893 24.1818H315.234V32.5C315.234 32.8788 315.289 33.1629 315.399 33.3523C315.513 33.5379 315.657 33.6629 315.831 33.7273C316.009 33.7879 316.196 33.8182 316.393 33.8182C316.541 33.8182 316.662 33.8106 316.757 33.7955C316.852 33.7765 316.927 33.7614 316.984 33.75L317.257 34.9545C317.166 34.9886 317.039 35.0227 316.876 35.0568C316.713 35.0947 316.507 35.1136 316.257 35.1136C315.878 35.1136 315.507 35.0322 315.143 34.8693C314.784 34.7064 314.484 34.4583 314.246 34.125C314.011 33.7917 313.893 33.3712 313.893 32.8636V24.1818ZM327.16 35.1818C326.342 35.1818 325.638 34.9886 325.047 34.6023C324.456 34.2159 324.001 33.6837 323.683 33.0057C323.365 32.3277 323.206 31.553 323.206 30.6818C323.206 29.7955 323.369 29.0133 323.695 28.3352C324.024 27.6534 324.482 27.1212 325.07 26.7386C325.66 26.3523 326.35 26.1591 327.138 26.1591C327.751 26.1591 328.304 26.2727 328.797 26.5C329.289 26.7273 329.693 27.0455 330.007 27.4545C330.321 27.8636 330.516 28.3409 330.592 28.8864H329.251C329.149 28.4886 328.922 28.1364 328.57 27.8295C328.221 27.5189 327.751 27.3636 327.16 27.3636C326.638 27.3636 326.179 27.5 325.785 27.7727C325.395 28.0417 325.09 28.4223 324.871 28.9148C324.655 29.4034 324.547 29.9773 324.547 30.6364C324.547 31.3106 324.653 31.8977 324.865 32.3977C325.081 32.8977 325.384 33.286 325.774 33.5625C326.168 33.839 326.63 33.9773 327.16 33.9773C327.509 33.9773 327.825 33.9167 328.109 33.7955C328.393 33.6742 328.634 33.5 328.831 33.2727C329.028 33.0455 329.168 32.7727 329.251 32.4545H330.592C330.516 32.9697 330.329 33.4337 330.03 33.8466C329.734 34.2557 329.342 34.5814 328.854 34.8239C328.369 35.0625 327.804 35.1818 327.16 35.1818ZM335.121 35.2045C334.568 35.2045 334.066 35.1004 333.615 34.892C333.164 34.6799 332.806 34.375 332.541 33.9773C332.276 33.5758 332.143 33.0909 332.143 32.5227C332.143 32.0227 332.242 31.6174 332.439 31.3068C332.636 30.9924 332.899 30.7462 333.229 30.5682C333.558 30.3902 333.922 30.2576 334.32 30.1705C334.721 30.0795 335.124 30.0076 335.53 29.9545C336.06 29.8864 336.49 29.8352 336.82 29.8011C337.153 29.7633 337.395 29.7008 337.547 29.6136C337.702 29.5265 337.78 29.375 337.78 29.1591V29.1136C337.78 28.553 337.626 28.1174 337.32 27.8068C337.016 27.4962 336.556 27.3409 335.939 27.3409C335.299 27.3409 334.797 27.4811 334.433 27.7614C334.07 28.0417 333.814 28.3409 333.666 28.6591L332.393 28.2045C332.621 27.6742 332.924 27.2614 333.302 26.9659C333.685 26.6667 334.102 26.4583 334.552 26.3409C335.007 26.2197 335.454 26.1591 335.893 26.1591C336.174 26.1591 336.496 26.1932 336.859 26.2614C337.227 26.3258 337.581 26.4602 337.922 26.6648C338.266 26.8693 338.552 27.178 338.78 27.5909C339.007 28.0038 339.121 28.5568 339.121 29.25V35H337.78V33.8182H337.712C337.621 34.0076 337.469 34.2102 337.257 34.4261C337.045 34.642 336.763 34.8258 336.41 34.9773C336.058 35.1288 335.628 35.2045 335.121 35.2045ZM335.325 34C335.855 34 336.302 33.8958 336.666 33.6875C337.034 33.4792 337.31 33.2102 337.496 32.8807C337.685 32.5511 337.78 32.2045 337.78 31.8409V30.6136C337.723 30.6818 337.598 30.7443 337.405 30.8011C337.215 30.8542 336.996 30.9015 336.746 30.9432C336.499 30.9811 336.259 31.0152 336.024 31.0455C335.793 31.072 335.605 31.0947 335.462 31.1136C335.113 31.1591 334.787 31.233 334.484 31.3352C334.185 31.4337 333.943 31.5833 333.757 31.7841C333.575 31.9811 333.484 32.25 333.484 32.5909C333.484 33.0568 333.657 33.4091 334.001 33.6477C334.35 33.8826 334.791 34 335.325 34ZM342.909 29.75V35H341.568V26.2727H342.864V27.6364H342.977C343.182 27.1932 343.492 26.8371 343.909 26.5682C344.326 26.2955 344.864 26.1591 345.523 26.1591C346.114 26.1591 346.631 26.2803 347.074 26.5227C347.517 26.7614 347.862 27.125 348.108 27.6136C348.354 28.0985 348.477 28.7121 348.477 29.4545V35H347.136V29.5455C347.136 28.8598 346.958 28.3258 346.602 27.9432C346.246 27.5568 345.757 27.3636 345.136 27.3636C344.708 27.3636 344.326 27.4564 343.989 27.642C343.655 27.8277 343.392 28.0985 343.199 28.4545C343.006 28.8106 342.909 29.2424 342.909 29.75ZM355.609 35V23.3636H356.95V27.6591H357.064C357.162 27.5076 357.299 27.3144 357.473 27.0795C357.651 26.8409 357.905 26.6288 358.234 26.4432C358.568 26.2538 359.018 26.1591 359.587 26.1591C360.321 26.1591 360.969 26.3428 361.53 26.7102C362.09 27.0777 362.528 27.5985 362.842 28.2727C363.157 28.947 363.314 29.7424 363.314 30.6591C363.314 31.5833 363.157 32.3845 362.842 33.0625C362.528 33.7367 362.092 34.2595 361.535 34.6307C360.979 34.9981 360.337 35.1818 359.609 35.1818C359.049 35.1818 358.6 35.089 358.263 34.9034C357.926 34.714 357.666 34.5 357.484 34.2614C357.302 34.0189 357.162 33.8182 357.064 33.6591H356.905V35H355.609ZM356.927 30.6364C356.927 31.2955 357.024 31.8769 357.217 32.3807C357.41 32.8807 357.693 33.2727 358.064 33.5568C358.435 33.8371 358.89 33.9773 359.427 33.9773C359.988 33.9773 360.456 33.8295 360.831 33.5341C361.21 33.2348 361.494 32.8333 361.683 32.3295C361.876 31.822 361.973 31.2576 361.973 30.6364C361.973 30.0227 361.878 29.4697 361.689 28.9773C361.503 28.4811 361.221 28.089 360.842 27.8011C360.467 27.5095 359.996 27.3636 359.427 27.3636C358.882 27.3636 358.424 27.5019 358.052 27.7784C357.681 28.0511 357.401 28.4337 357.212 28.9261C357.022 29.4148 356.927 29.9848 356.927 30.6364ZM369.024 35.1818C368.183 35.1818 367.458 34.9962 366.848 34.625C366.242 34.25 365.774 33.7273 365.445 33.0568C365.119 32.3826 364.956 31.5985 364.956 30.7045C364.956 29.8106 365.119 29.0227 365.445 28.3409C365.774 27.6553 366.232 27.1212 366.82 26.7386C367.41 26.3523 368.1 26.1591 368.888 26.1591C369.342 26.1591 369.791 26.2348 370.234 26.3864C370.677 26.5379 371.081 26.7841 371.445 27.125C371.808 27.4621 372.098 27.9091 372.314 28.4659C372.53 29.0227 372.638 29.7083 372.638 30.5227V31.0909H365.91V29.9318H371.274C371.274 29.4394 371.176 29 370.979 28.6136C370.785 28.2273 370.509 27.9223 370.149 27.6989C369.793 27.4754 369.373 27.3636 368.888 27.3636C368.354 27.3636 367.891 27.4962 367.501 27.7614C367.115 28.0227 366.818 28.3636 366.609 28.7841C366.401 29.2045 366.297 29.6553 366.297 30.1364V30.9091C366.297 31.5682 366.41 32.1269 366.638 32.5852C366.869 33.0398 367.189 33.3864 367.598 33.625C368.007 33.8598 368.482 33.9773 369.024 33.9773C369.376 33.9773 369.695 33.928 369.979 33.8295C370.266 33.7273 370.515 33.5758 370.723 33.375C370.931 33.1705 371.092 32.9167 371.206 32.6136L372.501 32.9773C372.365 33.4167 372.136 33.803 371.814 34.1364C371.492 34.4659 371.094 34.7235 370.621 34.9091C370.147 35.0909 369.615 35.1818 369.024 35.1818ZM384.677 31.4318V26.2727H386.018V35H384.677V33.5227H384.587C384.382 33.9659 384.064 34.3428 383.632 34.6534C383.2 34.9602 382.655 35.1136 381.996 35.1136C381.45 35.1136 380.965 34.9943 380.541 34.7557C380.117 34.5133 379.784 34.1496 379.541 33.6648C379.299 33.1761 379.177 32.5606 379.177 31.8182V26.2727H380.518V31.7273C380.518 32.3636 380.696 32.8712 381.052 33.25C381.412 33.6288 381.871 33.8182 382.427 33.8182C382.761 33.8182 383.1 33.733 383.445 33.5625C383.793 33.392 384.085 33.1307 384.32 32.7784C384.558 32.4261 384.677 31.9773 384.677 31.4318ZM388.474 38.2727V26.2727H389.77V27.6591H389.929C390.027 27.5076 390.164 27.3144 390.338 27.0795C390.516 26.8409 390.77 26.6288 391.099 26.4432C391.433 26.2538 391.883 26.1591 392.452 26.1591C393.186 26.1591 393.834 26.3428 394.395 26.7102C394.955 27.0777 395.393 27.5985 395.707 28.2727C396.022 28.947 396.179 29.7424 396.179 30.6591C396.179 31.5833 396.022 32.3845 395.707 33.0625C395.393 33.7367 394.957 34.2595 394.4 34.6307C393.844 34.9981 393.202 35.1818 392.474 35.1818C391.914 35.1818 391.465 35.089 391.128 34.9034C390.791 34.714 390.531 34.5 390.349 34.2614C390.168 34.0189 390.027 33.8182 389.929 33.6591H389.815V38.2727H388.474ZM389.793 30.6364C389.793 31.2955 389.889 31.8769 390.082 32.3807C390.275 32.8807 390.558 33.2727 390.929 33.5568C391.3 33.8371 391.755 33.9773 392.293 33.9773C392.853 33.9773 393.321 33.8295 393.696 33.5341C394.075 33.2348 394.359 32.8333 394.548 32.3295C394.741 31.822 394.838 31.2576 394.838 30.6364C394.838 30.0227 394.743 29.4697 394.554 28.9773C394.368 28.4811 394.086 28.089 393.707 27.8011C393.332 27.5095 392.861 27.3636 392.293 27.3636C391.747 27.3636 391.289 27.5019 390.918 27.7784C390.546 28.0511 390.266 28.4337 390.077 28.9261C389.887 29.4148 389.793 29.9848 389.793 30.6364ZM406.52 26.2727V27.4091H401.997V26.2727H406.52ZM403.315 24.1818H404.656V32.5C404.656 32.8788 404.711 33.1629 404.821 33.3523C404.935 33.5379 405.079 33.6629 405.253 33.7273C405.431 33.7879 405.618 33.8182 405.815 33.8182C405.963 33.8182 406.084 33.8106 406.179 33.7955C406.274 33.7765 406.349 33.7614 406.406 33.75L406.679 34.9545C406.588 34.9886 406.461 35.0227 406.298 35.0568C406.135 35.0947 405.929 35.1136 405.679 35.1136C405.3 35.1136 404.929 35.0322 404.565 34.8693C404.205 34.7064 403.906 34.4583 403.668 34.125C403.433 33.7917 403.315 33.3712 403.315 32.8636V24.1818ZM411.989 35.1818C411.201 35.1818 410.509 34.9943 409.915 34.6193C409.324 34.2443 408.862 33.7197 408.528 33.0455C408.199 32.3712 408.034 31.5833 408.034 30.6818C408.034 29.7727 408.199 28.9792 408.528 28.3011C408.862 27.6231 409.324 27.0966 409.915 26.7216C410.509 26.3466 411.201 26.1591 411.989 26.1591C412.776 26.1591 413.466 26.3466 414.057 26.7216C414.651 27.0966 415.114 27.6231 415.443 28.3011C415.776 28.9792 415.943 29.7727 415.943 30.6818C415.943 31.5833 415.776 32.3712 415.443 33.0455C415.114 33.7197 414.651 34.2443 414.057 34.6193C413.466 34.9943 412.776 35.1818 411.989 35.1818ZM411.989 33.9773C412.587 33.9773 413.079 33.8239 413.466 33.517C413.852 33.2102 414.138 32.8068 414.324 32.3068C414.509 31.8068 414.602 31.2652 414.602 30.6818C414.602 30.0985 414.509 29.5549 414.324 29.0511C414.138 28.5473 413.852 28.1402 413.466 27.8295C413.079 27.5189 412.587 27.3636 411.989 27.3636C411.39 27.3636 410.898 27.5189 410.511 27.8295C410.125 28.1402 409.839 28.5473 409.653 29.0511C409.468 29.5549 409.375 30.0985 409.375 30.6818C409.375 31.2652 409.468 31.8068 409.653 32.3068C409.839 32.8068 410.125 33.2102 410.511 33.517C410.898 33.8239 411.39 33.9773 411.989 33.9773ZM422.195 32.6136V31.4545L427.308 23.3636H428.149V25.1591H427.581L423.717 31.2727V31.3636H430.604V32.6136H422.195ZM427.672 35V32.2614V31.7216V23.3636H429.013V35H427.672ZM436.528 35.1591C435.672 35.1591 434.943 34.9261 434.341 34.4602C433.739 33.9905 433.278 33.3106 432.96 32.4205C432.642 31.5265 432.483 30.447 432.483 29.1818C432.483 27.9242 432.642 26.8504 432.96 25.9602C433.282 25.0663 433.744 24.3845 434.347 23.9148C434.953 23.4413 435.68 23.2045 436.528 23.2045C437.377 23.2045 438.102 23.4413 438.704 23.9148C439.311 24.3845 439.773 25.0663 440.091 25.9602C440.413 26.8504 440.574 27.9242 440.574 29.1818C440.574 30.447 440.415 31.5265 440.097 32.4205C439.778 33.3106 439.318 33.9905 438.716 34.4602C438.114 34.9261 437.384 35.1591 436.528 35.1591ZM436.528 33.9091C437.377 33.9091 438.036 33.5 438.506 32.6818C438.975 31.8636 439.21 30.697 439.21 29.1818C439.21 28.1742 439.102 27.3163 438.886 26.608C438.674 25.8996 438.367 25.3598 437.966 24.9886C437.568 24.6174 437.089 24.4318 436.528 24.4318C435.687 24.4318 435.03 24.8466 434.557 25.6761C434.083 26.5019 433.847 27.6705 433.847 29.1818C433.847 30.1894 433.953 31.0455 434.165 31.75C434.377 32.4545 434.682 32.9905 435.079 33.358C435.481 33.7254 435.964 33.9091 436.528 33.9091ZM443.327 35.0909C443.046 35.0909 442.806 34.9905 442.605 34.7898C442.404 34.589 442.304 34.3485 442.304 34.0682C442.304 33.7879 442.404 33.5473 442.605 33.3466C442.806 33.1458 443.046 33.0455 443.327 33.0455C443.607 33.0455 443.847 33.1458 444.048 33.3466C444.249 33.5473 444.349 33.7879 444.349 34.0682C444.349 34.2538 444.302 34.4242 444.207 34.5795C444.116 34.7348 443.993 34.8598 443.838 34.9545C443.686 35.0455 443.516 35.0909 443.327 35.0909ZM447.733 35.0909C447.453 35.0909 447.212 34.9905 447.011 34.7898C446.811 34.589 446.71 34.3485 446.71 34.0682C446.71 33.7879 446.811 33.5473 447.011 33.3466C447.212 33.1458 447.453 33.0455 447.733 33.0455C448.013 33.0455 448.254 33.1458 448.454 33.3466C448.655 33.5473 448.756 33.7879 448.756 34.0682C448.756 34.2538 448.708 34.4242 448.614 34.5795C448.523 34.7348 448.4 34.8598 448.244 34.9545C448.093 35.0455 447.922 35.0909 447.733 35.0909ZM452.139 35.0909C451.859 35.0909 451.618 34.9905 451.418 34.7898C451.217 34.589 451.116 34.3485 451.116 34.0682C451.116 33.7879 451.217 33.5473 451.418 33.3466C451.618 33.1458 451.859 33.0455 452.139 33.0455C452.419 33.0455 452.66 33.1458 452.861 33.3466C453.061 33.5473 453.162 33.7879 453.162 34.0682C453.162 34.2538 453.114 34.4242 453.02 34.5795C452.929 34.7348 452.806 34.8598 452.65 34.9545C452.499 35.0455 452.329 35.0909 452.139 35.0909Z" fill="#172D35"/>
<path d="M504.773 27H503.364C503.28 26.5947 503.134 26.2386 502.926 25.9318C502.722 25.625 502.472 25.3674 502.176 25.1591C501.884 24.947 501.561 24.7879 501.205 24.6818C500.848 24.5758 500.477 24.5227 500.091 24.5227C499.386 24.5227 498.748 24.7008 498.176 25.0568C497.608 25.4129 497.155 25.9375 496.818 26.6307C496.485 27.3239 496.318 28.1742 496.318 29.1818C496.318 30.1894 496.485 31.0398 496.818 31.733C497.155 32.4261 497.608 32.9508 498.176 33.3068C498.748 33.6629 499.386 33.8409 500.091 33.8409C500.477 33.8409 500.848 33.7879 501.205 33.6818C501.561 33.5758 501.884 33.4186 502.176 33.2102C502.472 32.9981 502.722 32.7386 502.926 32.4318C503.134 32.1212 503.28 31.7652 503.364 31.3636H504.773C504.667 31.9583 504.473 32.4905 504.193 32.9602C503.913 33.4299 503.564 33.8295 503.148 34.1591C502.731 34.4848 502.263 34.733 501.744 34.9034C501.229 35.0739 500.678 35.1591 500.091 35.1591C499.098 35.1591 498.216 34.9167 497.443 34.4318C496.67 33.947 496.063 33.2576 495.619 32.3636C495.176 31.4697 494.955 30.4091 494.955 29.1818C494.955 27.9545 495.176 26.8939 495.619 26C496.063 25.1061 496.67 24.4167 497.443 23.9318C498.216 23.447 499.098 23.2045 500.091 23.2045C500.678 23.2045 501.229 23.2898 501.744 23.4602C502.263 23.6307 502.731 23.8807 503.148 24.2102C503.564 24.536 503.913 24.9337 504.193 25.4034C504.473 25.8693 504.667 26.4015 504.773 27ZM509.436 35.2045C508.883 35.2045 508.381 35.1004 507.93 34.892C507.48 34.6799 507.122 34.375 506.857 33.9773C506.591 33.5758 506.459 33.0909 506.459 32.5227C506.459 32.0227 506.557 31.6174 506.754 31.3068C506.951 30.9924 507.214 30.7462 507.544 30.5682C507.874 30.3902 508.237 30.2576 508.635 30.1705C509.036 30.0795 509.44 30.0076 509.845 29.9545C510.375 29.8864 510.805 29.8352 511.135 29.8011C511.468 29.7633 511.711 29.7008 511.862 29.6136C512.018 29.5265 512.095 29.375 512.095 29.1591V29.1136C512.095 28.553 511.942 28.1174 511.635 27.8068C511.332 27.4962 510.872 27.3409 510.254 27.3409C509.614 27.3409 509.112 27.4811 508.749 27.7614C508.385 28.0417 508.129 28.3409 507.982 28.6591L506.709 28.2045C506.936 27.6742 507.239 27.2614 507.618 26.9659C508 26.6667 508.417 26.4583 508.868 26.3409C509.322 26.2197 509.769 26.1591 510.209 26.1591C510.489 26.1591 510.811 26.1932 511.175 26.2614C511.542 26.3258 511.896 26.4602 512.237 26.6648C512.582 26.8693 512.868 27.178 513.095 27.5909C513.322 28.0038 513.436 28.5568 513.436 29.25V35H512.095V33.8182H512.027C511.936 34.0076 511.785 34.2102 511.572 34.4261C511.36 34.642 511.078 34.8258 510.726 34.9773C510.374 35.1288 509.944 35.2045 509.436 35.2045ZM509.641 34C510.171 34 510.618 33.8958 510.982 33.6875C511.349 33.4792 511.625 33.2102 511.811 32.8807C512 32.5511 512.095 32.2045 512.095 31.8409V30.6136C512.038 30.6818 511.913 30.7443 511.72 30.8011C511.531 30.8542 511.311 30.9015 511.061 30.9432C510.815 30.9811 510.574 31.0152 510.339 31.0455C510.108 31.072 509.921 31.0947 509.777 31.1136C509.429 31.1591 509.103 31.233 508.8 31.3352C508.5 31.4337 508.258 31.5833 508.072 31.7841C507.891 31.9811 507.8 32.25 507.8 32.5909C507.8 33.0568 507.972 33.4091 508.317 33.6477C508.665 33.8826 509.107 34 509.641 34ZM517.224 29.75V35H515.884V26.2727H517.179V27.6364H517.293C517.497 27.1932 517.808 26.8371 518.224 26.5682C518.641 26.2955 519.179 26.1591 519.838 26.1591C520.429 26.1591 520.946 26.2803 521.389 26.5227C521.832 26.7614 522.177 27.125 522.423 27.6136C522.67 28.0985 522.793 28.7121 522.793 29.4545V35H521.452V29.5455C521.452 28.8598 521.274 28.3258 520.918 27.9432C520.562 27.5568 520.073 27.3636 519.452 27.3636C519.024 27.3636 518.641 27.4564 518.304 27.642C517.971 27.8277 517.707 28.0985 517.514 28.4545C517.321 28.8106 517.224 29.2424 517.224 29.75ZM528.788 35.1818C527.97 35.1818 527.266 34.9886 526.675 34.6023C526.084 34.2159 525.629 33.6837 525.311 33.0057C524.993 32.3277 524.834 31.553 524.834 30.6818C524.834 29.7955 524.997 29.0133 525.322 28.3352C525.652 27.6534 526.11 27.1212 526.697 26.7386C527.288 26.3523 527.978 26.1591 528.766 26.1591C529.379 26.1591 529.932 26.2727 530.425 26.5C530.917 26.7273 531.321 27.0455 531.635 27.4545C531.949 27.8636 532.144 28.3409 532.22 28.8864H530.879C530.777 28.4886 530.55 28.1364 530.197 27.8295C529.849 27.5189 529.379 27.3636 528.788 27.3636C528.266 27.3636 527.807 27.5 527.413 27.7727C527.023 28.0417 526.718 28.4223 526.499 28.9148C526.283 29.4034 526.175 29.9773 526.175 30.6364C526.175 31.3106 526.281 31.8977 526.493 32.3977C526.709 32.8977 527.012 33.286 527.402 33.5625C527.796 33.839 528.258 33.9773 528.788 33.9773C529.137 33.9773 529.453 33.9167 529.737 33.7955C530.021 33.6742 530.262 33.5 530.459 33.2727C530.656 33.0455 530.796 32.7727 530.879 32.4545H532.22C532.144 32.9697 531.957 33.4337 531.658 33.8466C531.362 34.2557 530.97 34.5814 530.482 34.8239C529.997 35.0625 529.432 35.1818 528.788 35.1818ZM537.839 35.1818C536.999 35.1818 536.273 34.9962 535.663 34.625C535.057 34.25 534.589 33.7273 534.26 33.0568C533.934 32.3826 533.771 31.5985 533.771 30.7045C533.771 29.8106 533.934 29.0227 534.26 28.3409C534.589 27.6553 535.048 27.1212 535.635 26.7386C536.226 26.3523 536.915 26.1591 537.703 26.1591C538.158 26.1591 538.607 26.2348 539.05 26.3864C539.493 26.5379 539.896 26.7841 540.26 27.125C540.624 27.4621 540.913 27.9091 541.129 28.4659C541.345 29.0227 541.453 29.7083 541.453 30.5227V31.0909H534.726V29.9318H540.089C540.089 29.4394 539.991 29 539.794 28.6136C539.601 28.2273 539.324 27.9223 538.964 27.6989C538.608 27.4754 538.188 27.3636 537.703 27.3636C537.169 27.3636 536.707 27.4962 536.317 27.7614C535.93 28.0227 535.633 28.3636 535.425 28.7841C535.216 29.2045 535.112 29.6553 535.112 30.1364V30.9091C535.112 31.5682 535.226 32.1269 535.453 32.5852C535.684 33.0398 536.004 33.3864 536.413 33.625C536.822 33.8598 537.298 33.9773 537.839 33.9773C538.192 33.9773 538.51 33.928 538.794 33.8295C539.082 33.7273 539.33 33.5758 539.538 33.375C539.747 33.1705 539.908 32.9167 540.021 32.6136L541.317 32.9773C541.18 33.4167 540.951 33.803 540.629 34.1364C540.307 34.4659 539.91 34.7235 539.436 34.9091C538.963 35.0909 538.43 35.1818 537.839 35.1818ZM544.834 23.3636V35H543.493V23.3636H544.834Z" fill="#172D35"/>
<rect x="567" y="10" width="57" height="39" rx="3" fill="#D1ED7E"/>
<path d="M584.773 26.2727C584.705 25.697 584.428 25.25 583.943 24.9318C583.458 24.6136 582.864 24.4545 582.159 24.4545C581.644 24.4545 581.193 24.5379 580.807 24.7045C580.424 24.8712 580.125 25.1004 579.909 25.392C579.697 25.6837 579.591 26.0152 579.591 26.3864C579.591 26.697 579.665 26.964 579.812 27.1875C579.964 27.4072 580.157 27.5909 580.392 27.7386C580.627 27.8826 580.873 28.0019 581.131 28.0966C581.388 28.1875 581.625 28.2614 581.841 28.3182L583.023 28.6364C583.326 28.7159 583.663 28.8258 584.034 28.9659C584.409 29.1061 584.767 29.2973 585.108 29.5398C585.453 29.7784 585.737 30.0852 585.96 30.4602C586.184 30.8352 586.295 31.2955 586.295 31.8409C586.295 32.4697 586.131 33.0379 585.801 33.5455C585.475 34.053 584.998 34.4564 584.369 34.7557C583.744 35.0549 582.985 35.2045 582.091 35.2045C581.258 35.2045 580.536 35.0701 579.926 34.8011C579.32 34.5322 578.843 34.1572 578.494 33.6761C578.15 33.1951 577.955 32.6364 577.909 32H579.364C579.402 32.4394 579.549 32.803 579.807 33.0909C580.068 33.375 580.398 33.5871 580.795 33.7273C581.197 33.8636 581.629 33.9318 582.091 33.9318C582.629 33.9318 583.112 33.8447 583.54 33.6705C583.968 33.4924 584.307 33.2462 584.557 32.9318C584.807 32.6136 584.932 32.2424 584.932 31.8182C584.932 31.4318 584.824 31.1174 584.608 30.875C584.392 30.6326 584.108 30.4356 583.756 30.2841C583.403 30.1326 583.023 30 582.614 29.8864L581.182 29.4773C580.273 29.2159 579.553 28.8428 579.023 28.358C578.492 27.8731 578.227 27.2386 578.227 26.4545C578.227 25.803 578.403 25.2348 578.756 24.75C579.112 24.2614 579.589 23.8826 580.188 23.6136C580.79 23.3409 581.462 23.2045 582.205 23.2045C582.955 23.2045 583.621 23.339 584.205 23.608C584.788 23.8731 585.25 24.2367 585.591 24.6989C585.936 25.161 586.117 25.6856 586.136 26.2727H584.773ZM590.999 35.2045C590.446 35.2045 589.944 35.1004 589.493 34.892C589.042 34.6799 588.684 34.375 588.419 33.9773C588.154 33.5758 588.021 33.0909 588.021 32.5227C588.021 32.0227 588.12 31.6174 588.317 31.3068C588.514 30.9924 588.777 30.7462 589.107 30.5682C589.436 30.3902 589.8 30.2576 590.197 30.1705C590.599 30.0795 591.002 30.0076 591.408 29.9545C591.938 29.8864 592.368 29.8352 592.697 29.8011C593.031 29.7633 593.273 29.7008 593.425 29.6136C593.58 29.5265 593.658 29.375 593.658 29.1591V29.1136C593.658 28.553 593.504 28.1174 593.197 27.8068C592.894 27.4962 592.434 27.3409 591.817 27.3409C591.177 27.3409 590.675 27.4811 590.311 27.7614C589.947 28.0417 589.692 28.3409 589.544 28.6591L588.271 28.2045C588.499 27.6742 588.802 27.2614 589.18 26.9659C589.563 26.6667 589.98 26.4583 590.43 26.3409C590.885 26.2197 591.332 26.1591 591.771 26.1591C592.052 26.1591 592.374 26.1932 592.737 26.2614C593.105 26.3258 593.459 26.4602 593.8 26.6648C594.144 26.8693 594.43 27.178 594.658 27.5909C594.885 28.0038 594.999 28.5568 594.999 29.25V35H593.658V33.8182H593.589C593.499 34.0076 593.347 34.2102 593.135 34.4261C592.923 34.642 592.641 34.8258 592.288 34.9773C591.936 35.1288 591.506 35.2045 590.999 35.2045ZM591.203 34C591.733 34 592.18 33.8958 592.544 33.6875C592.911 33.4792 593.188 33.2102 593.374 32.8807C593.563 32.5511 593.658 32.2045 593.658 31.8409V30.6136C593.601 30.6818 593.476 30.7443 593.283 30.8011C593.093 30.8542 592.874 30.9015 592.624 30.9432C592.377 30.9811 592.137 31.0152 591.902 31.0455C591.671 31.072 591.483 31.0947 591.339 31.1136C590.991 31.1591 590.665 31.233 590.362 31.3352C590.063 31.4337 589.821 31.5833 589.635 31.7841C589.453 31.9811 589.362 32.25 589.362 32.5909C589.362 33.0568 589.535 33.4091 589.879 33.6477C590.228 33.8826 590.669 34 591.203 34ZM604.27 26.2727L601.043 35H599.679L596.452 26.2727H597.906L600.315 33.2273H600.406L602.815 26.2727H604.27ZM609.386 35.1818C608.545 35.1818 607.82 34.9962 607.21 34.625C606.604 34.25 606.136 33.7273 605.807 33.0568C605.481 32.3826 605.318 31.5985 605.318 30.7045C605.318 29.8106 605.481 29.0227 605.807 28.3409C606.136 27.6553 606.595 27.1212 607.182 26.7386C607.773 26.3523 608.462 26.1591 609.25 26.1591C609.705 26.1591 610.153 26.2348 610.597 26.3864C611.04 26.5379 611.443 26.7841 611.807 27.125C612.17 27.4621 612.46 27.9091 612.676 28.4659C612.892 29.0227 613 29.7083 613 30.5227V31.0909H606.273V29.9318H611.636C611.636 29.4394 611.538 29 611.341 28.6136C611.148 28.2273 610.871 27.9223 610.511 27.6989C610.155 27.4754 609.735 27.3636 609.25 27.3636C608.716 27.3636 608.254 27.4962 607.864 27.7614C607.477 28.0227 607.18 28.3636 606.972 28.7841C606.763 29.2045 606.659 29.6553 606.659 30.1364V30.9091C606.659 31.5682 606.773 32.1269 607 32.5852C607.231 33.0398 607.551 33.3864 607.96 33.625C608.369 33.8598 608.845 33.9773 609.386 33.9773C609.739 33.9773 610.057 33.928 610.341 33.8295C610.629 33.7273 610.877 33.5758 611.085 33.375C611.294 33.1705 611.455 32.9167 611.568 32.6136L612.864 32.9773C612.727 33.4167 612.498 33.803 612.176 34.1364C611.854 34.4659 611.456 34.7235 610.983 34.9091C610.509 35.0909 609.977 35.1818 609.386 35.1818Z" fill="#172D35"/>
</svg>
