<svg width="1023" height="60" viewBox="0 0 1023 60" fill="none" xmlns="http://www.w3.org/2000/svg">
<rect width="1023" height="59" transform="translate(0 0.19165)" fill="#EDF4F4"/>
<rect x="10" y="10.1917" width="313" height="39" rx="3" fill="#D1ED7E"/>
<path d="M20.7727 24.8053V23.5553H29.5V24.8053H25.8409V35.1917H24.4318V24.8053H20.7727ZM32.8338 29.9417V35.1917H31.4929V23.5553H32.8338V27.828H32.9474C33.152 27.3773 33.4588 27.0193 33.8679 26.7542C34.2808 26.4852 34.83 26.3507 35.5156 26.3507C36.1103 26.3507 36.6312 26.4701 37.0781 26.7087C37.5251 26.9435 37.8717 27.3053 38.1179 27.7939C38.3679 28.2788 38.4929 28.8962 38.4929 29.6462V35.1917H37.152V29.7371C37.152 29.0439 36.9721 28.5079 36.6122 28.1292C36.2562 27.7466 35.7618 27.5553 35.1293 27.5553C34.6899 27.5553 34.2959 27.6481 33.9474 27.8337C33.6027 28.0193 33.33 28.2901 33.1293 28.6462C32.9323 29.0023 32.8338 29.4341 32.8338 29.9417ZM40.946 35.1917V26.4644H42.2869V35.1917H40.946ZM41.6278 25.0098C41.3665 25.0098 41.1411 24.9208 40.9517 24.7428C40.7661 24.5648 40.6733 24.3507 40.6733 24.1007C40.6733 23.8507 40.7661 23.6367 40.9517 23.4587C41.1411 23.2807 41.3665 23.1917 41.6278 23.1917C41.8892 23.1917 42.1127 23.2807 42.2983 23.4587C42.4877 23.6367 42.5824 23.8507 42.5824 24.1007C42.5824 24.3507 42.4877 24.5648 42.2983 24.7428C42.1127 24.9208 41.8892 25.0098 41.6278 25.0098ZM50.9247 28.4189L49.7202 28.7598C49.6444 28.5591 49.5327 28.364 49.3849 28.1746C49.241 27.9814 49.044 27.8223 48.794 27.6973C48.544 27.5723 48.224 27.5098 47.8338 27.5098C47.2997 27.5098 46.8546 27.6329 46.4986 27.8792C46.1463 28.1216 45.9702 28.4303 45.9702 28.8053C45.9702 29.1386 46.0914 29.4019 46.3338 29.5951C46.5762 29.7882 46.955 29.9492 47.4702 30.078L48.7656 30.3962C49.5459 30.5856 50.1274 30.8754 50.5099 31.2655C50.8925 31.6519 51.0838 32.15 51.0838 32.7598C51.0838 33.2598 50.9399 33.7068 50.652 34.1007C50.3679 34.4947 49.9702 34.8053 49.4588 35.0326C48.9474 35.2598 48.3527 35.3735 47.6747 35.3735C46.7846 35.3735 46.0478 35.1803 45.4645 34.7939C44.8812 34.4076 44.5118 33.8432 44.3565 33.1007L45.6293 32.7826C45.7505 33.2523 45.9796 33.6045 46.3168 33.8394C46.6577 34.0742 47.1027 34.1917 47.652 34.1917C48.277 34.1917 48.7732 34.0591 49.1406 33.7939C49.5118 33.525 49.6974 33.203 49.6974 32.828C49.6974 32.525 49.5914 32.2712 49.3793 32.0667C49.1671 31.8583 48.8414 31.703 48.402 31.6007L46.9474 31.2598C46.1482 31.0704 45.5611 30.7769 45.1861 30.3792C44.8149 29.9776 44.6293 29.4757 44.6293 28.8735C44.6293 28.381 44.7675 27.9454 45.044 27.5667C45.3243 27.1879 45.705 26.8905 46.1861 26.6746C46.6709 26.4587 47.2202 26.3507 47.8338 26.3507C48.6974 26.3507 49.3755 26.5401 49.8679 26.9189C50.3641 27.2977 50.7164 27.7977 50.9247 28.4189ZM61.3977 26.4644V27.6007H56.875V26.4644H61.3977ZM58.1932 24.3735H59.5341V32.6917C59.5341 33.0704 59.589 33.3545 59.6989 33.5439C59.8125 33.7295 59.9564 33.8545 60.1307 33.9189C60.3087 33.9795 60.4962 34.0098 60.6932 34.0098C60.8409 34.0098 60.9621 34.0023 61.0568 33.9871C61.1515 33.9682 61.2273 33.953 61.2841 33.9417L61.5568 35.1462C61.4659 35.1803 61.339 35.2144 61.1761 35.2485C61.0133 35.2863 60.8068 35.3053 60.5568 35.3053C60.178 35.3053 59.8068 35.2238 59.4432 35.061C59.0833 34.8981 58.7841 34.65 58.5455 34.3167C58.3106 33.9833 58.1932 33.5629 58.1932 33.0553V24.3735ZM66.9801 35.3735C66.1392 35.3735 65.4138 35.1879 64.804 34.8167C64.1979 34.4417 63.7301 33.9189 63.4006 33.2485C63.0748 32.5742 62.9119 31.7901 62.9119 30.8962C62.9119 30.0023 63.0748 29.2144 63.4006 28.5326C63.7301 27.847 64.1884 27.3129 64.7756 26.9303C65.3665 26.5439 66.0559 26.3507 66.8438 26.3507C67.2983 26.3507 67.7472 26.4265 68.1903 26.578C68.6335 26.7295 69.0369 26.9757 69.4006 27.3167C69.7642 27.6538 70.054 28.1007 70.2699 28.6576C70.4858 29.2144 70.5938 29.9 70.5938 30.7144V31.2826H63.8665V30.1235H69.2301C69.2301 29.631 69.1316 29.1917 68.9347 28.8053C68.7415 28.4189 68.465 28.114 68.1051 27.8905C67.7491 27.667 67.3286 27.5553 66.8438 27.5553C66.3097 27.5553 65.8475 27.6879 65.4574 27.953C65.071 28.2144 64.7737 28.5553 64.5653 28.9757C64.357 29.3962 64.2528 29.847 64.2528 30.328V31.1007C64.2528 31.7598 64.3665 32.3185 64.5938 32.7769C64.8248 33.2314 65.1449 33.578 65.554 33.8167C65.9631 34.0515 66.4384 34.1689 66.9801 34.1689C67.3324 34.1689 67.6506 34.1197 67.9347 34.0212C68.2225 33.9189 68.4706 33.7674 68.679 33.5667C68.8873 33.3621 69.0483 33.1083 69.1619 32.8053L70.4574 33.1689C70.321 33.6083 70.0919 33.9947 69.7699 34.328C69.4479 34.6576 69.0502 34.9151 68.5767 35.1007C68.1032 35.2826 67.571 35.3735 66.9801 35.3735ZM73.3991 26.4644L75.4901 30.0326L77.581 26.4644H79.1264L76.3082 30.828L79.1264 35.1917H77.581L75.4901 31.8053L73.3991 35.1917H71.8537L74.6264 30.828L71.8537 26.4644H73.3991ZM84.8352 26.4644V27.6007H80.3125V26.4644H84.8352ZM81.6307 24.3735H82.9716V32.6917C82.9716 33.0704 83.0265 33.3545 83.1364 33.5439C83.25 33.7295 83.3939 33.8545 83.5682 33.9189C83.7462 33.9795 83.9337 34.0098 84.1307 34.0098C84.2784 34.0098 84.3996 34.0023 84.4943 33.9871C84.589 33.9682 84.6648 33.953 84.7216 33.9417L84.9943 35.1462C84.9034 35.1803 84.7765 35.2144 84.6136 35.2485C84.4508 35.2863 84.2443 35.3053 83.9943 35.3053C83.6155 35.3053 83.2443 35.2238 82.8807 35.061C82.5208 34.8981 82.2216 34.65 81.983 34.3167C81.7481 33.9833 81.6307 33.5629 81.6307 33.0553V24.3735ZM94.8977 35.3735C94.0795 35.3735 93.375 35.1803 92.7841 34.7939C92.1932 34.4076 91.7386 33.8754 91.4205 33.1973C91.1023 32.5193 90.9432 31.7447 90.9432 30.8735C90.9432 29.9871 91.1061 29.2049 91.4318 28.5269C91.7614 27.8451 92.2197 27.3129 92.8068 26.9303C93.3977 26.5439 94.0871 26.3507 94.875 26.3507C95.4886 26.3507 96.0417 26.4644 96.5341 26.6917C97.0265 26.9189 97.4299 27.2371 97.7443 27.6462C98.0587 28.0553 98.2538 28.5326 98.3295 29.078H96.9886C96.8864 28.6803 96.6591 28.328 96.3068 28.0212C95.9583 27.7106 95.4886 27.5553 94.8977 27.5553C94.375 27.5553 93.9167 27.6917 93.5227 27.9644C93.1326 28.2333 92.8277 28.614 92.608 29.1064C92.392 29.5951 92.2841 30.1689 92.2841 30.828C92.2841 31.5023 92.3902 32.0894 92.6023 32.5894C92.8182 33.0894 93.1212 33.4776 93.5114 33.7542C93.9053 34.0307 94.3674 34.1689 94.8977 34.1689C95.2462 34.1689 95.5625 34.1083 95.8466 33.9871C96.1307 33.8659 96.3712 33.6917 96.5682 33.4644C96.7652 33.2371 96.9053 32.9644 96.9886 32.6462H98.3295C98.2538 33.1613 98.0663 33.6254 97.767 34.0382C97.4716 34.4473 97.0795 34.7731 96.5909 35.0155C96.1061 35.2542 95.5417 35.3735 94.8977 35.3735ZM102.858 35.3962C102.305 35.3962 101.803 35.292 101.352 35.0837C100.902 34.8716 100.544 34.5667 100.278 34.1689C100.013 33.7674 99.8807 33.2826 99.8807 32.7144C99.8807 32.2144 99.9792 31.8091 100.176 31.4985C100.373 31.1841 100.636 30.9379 100.966 30.7598C101.295 30.5818 101.659 30.4492 102.057 30.3621C102.458 30.2712 102.862 30.1992 103.267 30.1462C103.797 30.078 104.227 30.0269 104.557 29.9928C104.89 29.9549 105.133 29.8924 105.284 29.8053C105.439 29.7182 105.517 29.5667 105.517 29.3507V29.3053C105.517 28.7447 105.364 28.3091 105.057 27.9985C104.754 27.6879 104.294 27.5326 103.676 27.5326C103.036 27.5326 102.534 27.6727 102.17 27.953C101.807 28.2333 101.551 28.5326 101.403 28.8507L100.131 28.3962C100.358 27.8659 100.661 27.453 101.04 27.1576C101.422 26.8583 101.839 26.65 102.29 26.5326C102.744 26.4113 103.191 26.3507 103.631 26.3507C103.911 26.3507 104.233 26.3848 104.597 26.453C104.964 26.5174 105.318 26.6519 105.659 26.8564C106.004 27.061 106.29 27.3697 106.517 27.7826C106.744 28.1954 106.858 28.7485 106.858 29.4417V35.1917H105.517V34.0098H105.449C105.358 34.1992 105.206 34.4019 104.994 34.6178C104.782 34.8337 104.5 35.0174 104.148 35.1689C103.795 35.3204 103.366 35.3962 102.858 35.3962ZM103.062 34.1917C103.593 34.1917 104.04 34.0875 104.403 33.8792C104.771 33.6708 105.047 33.4019 105.233 33.0723C105.422 32.7428 105.517 32.3962 105.517 32.0326V30.8053C105.46 30.8735 105.335 30.936 105.142 30.9928C104.953 31.0458 104.733 31.0932 104.483 31.1348C104.237 31.1727 103.996 31.2068 103.761 31.2371C103.53 31.2636 103.343 31.2863 103.199 31.3053C102.85 31.3507 102.525 31.4246 102.222 31.5269C101.922 31.6254 101.68 31.775 101.494 31.9757C101.313 32.1727 101.222 32.4417 101.222 32.7826C101.222 33.2485 101.394 33.6007 101.739 33.8394C102.087 34.0742 102.528 34.1917 103.062 34.1917ZM110.646 29.9417V35.1917H109.305V26.4644H110.601V27.828H110.714C110.919 27.3848 111.23 27.0288 111.646 26.7598C112.063 26.4871 112.601 26.3507 113.26 26.3507C113.851 26.3507 114.368 26.472 114.811 26.7144C115.254 26.953 115.599 27.3167 115.845 27.8053C116.091 28.2901 116.214 28.9038 116.214 29.6462V35.1917H114.874V29.7371C114.874 29.0515 114.696 28.5174 114.339 28.1348C113.983 27.7485 113.495 27.5553 112.874 27.5553C112.446 27.5553 112.063 27.6481 111.726 27.8337C111.393 28.0193 111.129 28.2901 110.936 28.6462C110.743 29.0023 110.646 29.4341 110.646 29.9417ZM123.347 35.1917V23.5553H124.688V27.8507H124.801C124.9 27.6992 125.036 27.506 125.21 27.2712C125.388 27.0326 125.642 26.8204 125.972 26.6348C126.305 26.4454 126.756 26.3507 127.324 26.3507C128.059 26.3507 128.706 26.5345 129.267 26.9019C129.828 27.2693 130.265 27.7901 130.58 28.4644C130.894 29.1386 131.051 29.9341 131.051 30.8507C131.051 31.775 130.894 32.5761 130.58 33.2542C130.265 33.9284 129.83 34.4511 129.273 34.8223C128.716 35.1898 128.074 35.3735 127.347 35.3735C126.786 35.3735 126.337 35.2807 126 35.0951C125.663 34.9057 125.403 34.6917 125.222 34.453C125.04 34.2106 124.9 34.0098 124.801 33.8507H124.642V35.1917H123.347ZM124.665 30.828C124.665 31.4871 124.761 32.0685 124.955 32.5723C125.148 33.0723 125.43 33.4644 125.801 33.7485C126.172 34.0288 126.627 34.1689 127.165 34.1689C127.725 34.1689 128.193 34.0212 128.568 33.7257C128.947 33.4265 129.231 33.025 129.42 32.5212C129.614 32.0136 129.71 31.4492 129.71 30.828C129.71 30.2144 129.616 29.6613 129.426 29.1689C129.241 28.6727 128.958 28.2807 128.58 27.9928C128.205 27.7011 127.733 27.5553 127.165 27.5553C126.619 27.5553 126.161 27.6935 125.79 27.9701C125.419 28.2428 125.138 28.6254 124.949 29.1178C124.759 29.6064 124.665 30.1765 124.665 30.828ZM136.761 35.3735C135.92 35.3735 135.195 35.1879 134.585 34.8167C133.979 34.4417 133.511 33.9189 133.182 33.2485C132.856 32.5742 132.693 31.7901 132.693 30.8962C132.693 30.0023 132.856 29.2144 133.182 28.5326C133.511 27.847 133.97 27.3129 134.557 26.9303C135.148 26.5439 135.837 26.3507 136.625 26.3507C137.08 26.3507 137.528 26.4265 137.972 26.578C138.415 26.7295 138.818 26.9757 139.182 27.3167C139.545 27.6538 139.835 28.1007 140.051 28.6576C140.267 29.2144 140.375 29.9 140.375 30.7144V31.2826H133.648V30.1235H139.011C139.011 29.631 138.913 29.1917 138.716 28.8053C138.523 28.4189 138.246 28.114 137.886 27.8905C137.53 27.667 137.11 27.5553 136.625 27.5553C136.091 27.5553 135.629 27.6879 135.239 27.953C134.852 28.2144 134.555 28.5553 134.347 28.9757C134.138 29.3962 134.034 29.847 134.034 30.328V31.1007C134.034 31.7598 134.148 32.3185 134.375 32.7769C134.606 33.2314 134.926 33.578 135.335 33.8167C135.744 34.0515 136.22 34.1689 136.761 34.1689C137.114 34.1689 137.432 34.1197 137.716 34.0212C138.004 33.9189 138.252 33.7674 138.46 33.5667C138.669 33.3621 138.83 33.1083 138.943 32.8053L140.239 33.1689C140.102 33.6083 139.873 33.9947 139.551 34.328C139.229 34.6576 138.831 34.9151 138.358 35.1007C137.884 35.2826 137.352 35.3735 136.761 35.3735ZM152.415 31.6235V26.4644H153.756V35.1917H152.415V33.7144H152.324C152.119 34.1576 151.801 34.5345 151.369 34.8451C150.938 35.1519 150.392 35.3053 149.733 35.3053C149.188 35.3053 148.703 35.186 148.278 34.9473C147.854 34.7049 147.521 34.3413 147.278 33.8564C147.036 33.3678 146.915 32.7523 146.915 32.0098V26.4644H148.256V31.9189C148.256 32.5553 148.434 33.0629 148.79 33.4417C149.15 33.8204 149.608 34.0098 150.165 34.0098C150.498 34.0098 150.837 33.9246 151.182 33.7542C151.53 33.5837 151.822 33.3223 152.057 32.9701C152.295 32.6178 152.415 32.1689 152.415 31.6235ZM156.212 38.4644V26.4644H157.507V27.8507H157.666C157.765 27.6992 157.901 27.506 158.075 27.2712C158.253 27.0326 158.507 26.8204 158.837 26.6348C159.17 26.4454 159.621 26.3507 160.189 26.3507C160.924 26.3507 161.571 26.5345 162.132 26.9019C162.693 27.2693 163.13 27.7901 163.445 28.4644C163.759 29.1386 163.916 29.9341 163.916 30.8507C163.916 31.775 163.759 32.5761 163.445 33.2542C163.13 33.9284 162.695 34.4511 162.138 34.8223C161.581 35.1898 160.939 35.3735 160.212 35.3735C159.651 35.3735 159.202 35.2807 158.865 35.0951C158.528 34.9057 158.268 34.6917 158.087 34.453C157.905 34.2106 157.765 34.0098 157.666 33.8507H157.553V38.4644H156.212ZM157.53 30.828C157.53 31.4871 157.626 32.0685 157.82 32.5723C158.013 33.0723 158.295 33.4644 158.666 33.7485C159.037 34.0288 159.492 34.1689 160.03 34.1689C160.59 34.1689 161.058 34.0212 161.433 33.7257C161.812 33.4265 162.096 33.025 162.286 32.5212C162.479 32.0136 162.575 31.4492 162.575 30.828C162.575 30.2144 162.481 29.6613 162.291 29.1689C162.106 28.6727 161.823 28.2807 161.445 27.9928C161.07 27.7011 160.598 27.5553 160.03 27.5553C159.484 27.5553 159.026 27.6935 158.655 27.9701C158.284 28.2428 158.003 28.6254 157.814 29.1178C157.625 29.6064 157.53 30.1765 157.53 30.828ZM174.257 26.4644V27.6007H169.734V26.4644H174.257ZM171.053 24.3735H172.393V32.6917C172.393 33.0704 172.448 33.3545 172.558 33.5439C172.672 33.7295 172.816 33.8545 172.99 33.9189C173.168 33.9795 173.356 34.0098 173.553 34.0098C173.7 34.0098 173.821 34.0023 173.916 33.9871C174.011 33.9682 174.087 33.953 174.143 33.9417L174.416 35.1462C174.325 35.1803 174.198 35.2144 174.036 35.2485C173.873 35.2863 173.666 35.3053 173.416 35.3053C173.037 35.3053 172.666 35.2238 172.303 35.061C171.943 34.8981 171.643 34.65 171.405 34.3167C171.17 33.9833 171.053 33.5629 171.053 33.0553V24.3735ZM179.726 35.3735C178.938 35.3735 178.247 35.186 177.652 34.811C177.061 34.436 176.599 33.9113 176.266 33.2371C175.936 32.5629 175.771 31.775 175.771 30.8735C175.771 29.9644 175.936 29.1708 176.266 28.4928C176.599 27.8148 177.061 27.2882 177.652 26.9132C178.247 26.5382 178.938 26.3507 179.726 26.3507C180.514 26.3507 181.203 26.5382 181.794 26.9132C182.389 27.2882 182.851 27.8148 183.18 28.4928C183.514 29.1708 183.68 29.9644 183.68 30.8735C183.68 31.775 183.514 32.5629 183.18 33.2371C182.851 33.9113 182.389 34.436 181.794 34.811C181.203 35.186 180.514 35.3735 179.726 35.3735ZM179.726 34.1689C180.324 34.1689 180.817 34.0155 181.203 33.7087C181.589 33.4019 181.875 32.9985 182.061 32.4985C182.247 31.9985 182.339 31.4568 182.339 30.8735C182.339 30.2901 182.247 29.7466 182.061 29.2428C181.875 28.739 181.589 28.3318 181.203 28.0212C180.817 27.7106 180.324 27.5553 179.726 27.5553C179.127 27.5553 178.635 27.7106 178.249 28.0212C177.862 28.3318 177.576 28.739 177.391 29.2428C177.205 29.7466 177.112 30.2901 177.112 30.8735C177.112 31.4568 177.205 31.9985 177.391 32.4985C177.576 32.9985 177.862 33.4019 178.249 33.7087C178.635 34.0155 179.127 34.1689 179.726 34.1689ZM189.932 32.8053V31.6462L195.045 23.5553H195.886V25.3507H195.318L191.455 31.4644V31.5553H198.341V32.8053H189.932ZM195.409 35.1917V32.453V31.9132V23.5553H196.75V35.1917H195.409ZM204.266 35.3507C203.41 35.3507 202.68 35.1178 202.078 34.6519C201.476 34.1822 201.016 33.5023 200.697 32.6121C200.379 31.7182 200.22 30.6386 200.22 29.3735C200.22 28.1159 200.379 27.042 200.697 26.1519C201.019 25.2579 201.482 24.5761 202.084 24.1064C202.69 23.6329 203.417 23.3962 204.266 23.3962C205.114 23.3962 205.839 23.6329 206.442 24.1064C207.048 24.5761 207.51 25.2579 207.828 26.1519C208.15 27.042 208.311 28.1159 208.311 29.3735C208.311 30.6386 208.152 31.7182 207.834 32.6121C207.516 33.5023 207.055 34.1822 206.453 34.6519C205.851 35.1178 205.122 35.3507 204.266 35.3507ZM204.266 34.1007C205.114 34.1007 205.773 33.6917 206.243 32.8735C206.713 32.0553 206.947 30.8886 206.947 29.3735C206.947 28.3659 206.839 27.5079 206.624 26.7996C206.411 26.0913 206.105 25.5515 205.703 25.1803C205.305 24.8091 204.826 24.6235 204.266 24.6235C203.425 24.6235 202.768 25.0382 202.294 25.8678C201.821 26.6935 201.584 27.8621 201.584 29.3735C201.584 30.381 201.69 31.2371 201.902 31.9417C202.114 32.6462 202.419 33.1822 202.817 33.5496C203.218 33.917 203.701 34.1007 204.266 34.1007ZM218.538 35.3735C217.72 35.3735 217.016 35.1803 216.425 34.7939C215.834 34.4076 215.379 33.8754 215.061 33.1973C214.743 32.5193 214.584 31.7447 214.584 30.8735C214.584 29.9871 214.747 29.2049 215.072 28.5269C215.402 27.8451 215.86 27.3129 216.447 26.9303C217.038 26.5439 217.728 26.3507 218.516 26.3507C219.129 26.3507 219.682 26.4644 220.175 26.6917C220.667 26.9189 221.071 27.2371 221.385 27.6462C221.699 28.0553 221.894 28.5326 221.97 29.078H220.629C220.527 28.6803 220.3 28.328 219.947 28.0212C219.599 27.7106 219.129 27.5553 218.538 27.5553C218.016 27.5553 217.557 27.6917 217.163 27.9644C216.773 28.2333 216.468 28.614 216.249 29.1064C216.033 29.5951 215.925 30.1689 215.925 30.828C215.925 31.5023 216.031 32.0894 216.243 32.5894C216.459 33.0894 216.762 33.4776 217.152 33.7542C217.546 34.0307 218.008 34.1689 218.538 34.1689C218.887 34.1689 219.203 34.1083 219.487 33.9871C219.771 33.8659 220.012 33.6917 220.209 33.4644C220.406 33.2371 220.546 32.9644 220.629 32.6462H221.97C221.894 33.1613 221.707 33.6254 221.408 34.0382C221.112 34.4473 220.72 34.7731 220.232 35.0155C219.747 35.2542 219.182 35.3735 218.538 35.3735ZM225.271 29.9417V35.1917H223.93V23.5553H225.271V27.828H225.385C225.589 27.3773 225.896 27.0193 226.305 26.7542C226.718 26.4852 227.268 26.3507 227.953 26.3507C228.548 26.3507 229.069 26.4701 229.516 26.7087C229.963 26.9435 230.309 27.3053 230.555 27.7939C230.805 28.2788 230.93 28.8962 230.93 29.6462V35.1917H229.589V29.7371C229.589 29.0439 229.41 28.5079 229.05 28.1292C228.694 27.7466 228.199 27.5553 227.567 27.5553C227.127 27.5553 226.733 27.6481 226.385 27.8337C226.04 28.0193 225.768 28.2901 225.567 28.6462C225.37 29.0023 225.271 29.4341 225.271 29.9417ZM235.952 35.3962C235.399 35.3962 234.897 35.292 234.446 35.0837C233.995 34.8716 233.637 34.5667 233.372 34.1689C233.107 33.7674 232.974 33.2826 232.974 32.7144C232.974 32.2144 233.073 31.8091 233.27 31.4985C233.467 31.1841 233.73 30.9379 234.06 30.7598C234.389 30.5818 234.753 30.4492 235.151 30.3621C235.552 30.2712 235.955 30.1992 236.361 30.1462C236.891 30.078 237.321 30.0269 237.651 29.9928C237.984 29.9549 238.226 29.8924 238.378 29.8053C238.533 29.7182 238.611 29.5667 238.611 29.3507V29.3053C238.611 28.7447 238.457 28.3091 238.151 27.9985C237.848 27.6879 237.387 27.5326 236.77 27.5326C236.13 27.5326 235.628 27.6727 235.264 27.953C234.901 28.2333 234.645 28.5326 234.497 28.8507L233.224 28.3962C233.452 27.8659 233.755 27.453 234.134 27.1576C234.516 26.8583 234.933 26.65 235.384 26.5326C235.838 26.4113 236.285 26.3507 236.724 26.3507C237.005 26.3507 237.327 26.3848 237.69 26.453C238.058 26.5174 238.412 26.6519 238.753 26.8564C239.098 27.061 239.384 27.3697 239.611 27.7826C239.838 28.1954 239.952 28.7485 239.952 29.4417V35.1917H238.611V34.0098H238.543C238.452 34.1992 238.3 34.4019 238.088 34.6178C237.876 34.8337 237.594 35.0174 237.241 35.1689C236.889 35.3204 236.459 35.3962 235.952 35.3962ZM236.156 34.1917C236.687 34.1917 237.134 34.0875 237.497 33.8792C237.865 33.6708 238.141 33.4019 238.327 33.0723C238.516 32.7428 238.611 32.3962 238.611 32.0326V30.8053C238.554 30.8735 238.429 30.936 238.236 30.9928C238.046 31.0458 237.827 31.0932 237.577 31.1348C237.33 31.1727 237.09 31.2068 236.855 31.2371C236.624 31.2636 236.437 31.2863 236.293 31.3053C235.944 31.3507 235.618 31.4246 235.315 31.5269C235.016 31.6254 234.774 31.775 234.588 31.9757C234.406 32.1727 234.315 32.4417 234.315 32.7826C234.315 33.2485 234.488 33.6007 234.832 33.8394C235.181 34.0742 235.622 34.1917 236.156 34.1917ZM242.399 35.1917V26.4644H243.695V27.7826H243.786C243.945 27.3507 244.232 27.0004 244.649 26.7314C245.066 26.4625 245.536 26.328 246.058 26.328C246.157 26.328 246.28 26.3299 246.428 26.3337C246.575 26.3375 246.687 26.3432 246.763 26.3507V27.7144C246.717 27.703 246.613 27.686 246.45 27.6632C246.291 27.6367 246.123 27.6235 245.945 27.6235C245.52 27.6235 245.142 27.7125 244.808 27.8905C244.479 28.0648 244.217 28.3072 244.024 28.6178C243.835 28.9246 243.74 29.275 243.74 29.6689V35.1917H242.399ZM250.92 35.3962C250.367 35.3962 249.866 35.292 249.415 35.0837C248.964 34.8716 248.606 34.5667 248.341 34.1689C248.076 33.7674 247.943 33.2826 247.943 32.7144C247.943 32.2144 248.042 31.8091 248.239 31.4985C248.436 31.1841 248.699 30.9379 249.028 30.7598C249.358 30.5818 249.722 30.4492 250.119 30.3621C250.521 30.2712 250.924 30.1992 251.33 30.1462C251.86 30.078 252.29 30.0269 252.619 29.9928C252.953 29.9549 253.195 29.8924 253.347 29.8053C253.502 29.7182 253.58 29.5667 253.58 29.3507V29.3053C253.58 28.7447 253.426 28.3091 253.119 27.9985C252.816 27.6879 252.356 27.5326 251.739 27.5326C251.098 27.5326 250.597 27.6727 250.233 27.953C249.869 28.2333 249.614 28.5326 249.466 28.8507L248.193 28.3962C248.42 27.8659 248.723 27.453 249.102 27.1576C249.485 26.8583 249.902 26.65 250.352 26.5326C250.807 26.4113 251.254 26.3507 251.693 26.3507C251.973 26.3507 252.295 26.3848 252.659 26.453C253.027 26.5174 253.381 26.6519 253.722 26.8564C254.066 27.061 254.352 27.3697 254.58 27.7826C254.807 28.1954 254.92 28.7485 254.92 29.4417V35.1917H253.58V34.0098H253.511C253.42 34.1992 253.269 34.4019 253.057 34.6178C252.845 34.8337 252.563 35.0174 252.21 35.1689C251.858 35.3204 251.428 35.3962 250.92 35.3962ZM251.125 34.1917C251.655 34.1917 252.102 34.0875 252.466 33.8792C252.833 33.6708 253.11 33.4019 253.295 33.0723C253.485 32.7428 253.58 32.3962 253.58 32.0326V30.8053C253.523 30.8735 253.398 30.936 253.205 30.9928C253.015 31.0458 252.795 31.0932 252.545 31.1348C252.299 31.1727 252.059 31.2068 251.824 31.2371C251.593 31.2636 251.405 31.2863 251.261 31.3053C250.913 31.3507 250.587 31.4246 250.284 31.5269C249.985 31.6254 249.742 31.775 249.557 31.9757C249.375 32.1727 249.284 32.4417 249.284 32.7826C249.284 33.2485 249.456 33.6007 249.801 33.8394C250.15 34.0742 250.591 34.1917 251.125 34.1917ZM260.913 35.3735C260.095 35.3735 259.391 35.1803 258.8 34.7939C258.209 34.4076 257.754 33.8754 257.436 33.1973C257.118 32.5193 256.959 31.7447 256.959 30.8735C256.959 29.9871 257.122 29.2049 257.447 28.5269C257.777 27.8451 258.235 27.3129 258.822 26.9303C259.413 26.5439 260.103 26.3507 260.891 26.3507C261.504 26.3507 262.057 26.4644 262.55 26.6917C263.042 26.9189 263.446 27.2371 263.76 27.6462C264.074 28.0553 264.269 28.5326 264.345 29.078H263.004C262.902 28.6803 262.675 28.328 262.322 28.0212C261.974 27.7106 261.504 27.5553 260.913 27.5553C260.391 27.5553 259.932 27.6917 259.538 27.9644C259.148 28.2333 258.843 28.614 258.624 29.1064C258.408 29.5951 258.3 30.1689 258.3 30.828C258.3 31.5023 258.406 32.0894 258.618 32.5894C258.834 33.0894 259.137 33.4776 259.527 33.7542C259.921 34.0307 260.383 34.1689 260.913 34.1689C261.262 34.1689 261.578 34.1083 261.862 33.9871C262.146 33.8659 262.387 33.6917 262.584 33.4644C262.781 33.2371 262.921 32.9644 263.004 32.6462H264.345C264.269 33.1613 264.082 33.6254 263.783 34.0382C263.487 34.4473 263.095 34.7731 262.607 35.0155C262.122 35.2542 261.557 35.3735 260.913 35.3735ZM270.101 26.4644V27.6007H265.578V26.4644H270.101ZM266.896 24.3735H268.237V32.6917C268.237 33.0704 268.292 33.3545 268.402 33.5439C268.516 33.7295 268.66 33.8545 268.834 33.9189C269.012 33.9795 269.199 34.0098 269.396 34.0098C269.544 34.0098 269.665 34.0023 269.76 33.9871C269.855 33.9682 269.93 33.953 269.987 33.9417L270.26 35.1462C270.169 35.1803 270.042 35.2144 269.879 35.2485C269.716 35.2863 269.51 35.3053 269.26 35.3053C268.881 35.3053 268.51 35.2238 268.146 35.061C267.786 34.8981 267.487 34.65 267.249 34.3167C267.014 33.9833 266.896 33.5629 266.896 33.0553V24.3735ZM275.683 35.3735C274.842 35.3735 274.117 35.1879 273.507 34.8167C272.901 34.4417 272.433 33.9189 272.104 33.2485C271.778 32.5742 271.615 31.7901 271.615 30.8962C271.615 30.0023 271.778 29.2144 272.104 28.5326C272.433 27.847 272.892 27.3129 273.479 26.9303C274.07 26.5439 274.759 26.3507 275.547 26.3507C276.001 26.3507 276.45 26.4265 276.893 26.578C277.337 26.7295 277.74 26.9757 278.104 27.3167C278.467 27.6538 278.757 28.1007 278.973 28.6576C279.189 29.2144 279.297 29.9 279.297 30.7144V31.2826H272.57V30.1235H277.933C277.933 29.631 277.835 29.1917 277.638 28.8053C277.445 28.4189 277.168 28.114 276.808 27.8905C276.452 27.667 276.032 27.5553 275.547 27.5553C275.013 27.5553 274.551 27.6879 274.161 27.953C273.774 28.2144 273.477 28.5553 273.268 28.9757C273.06 29.3962 272.956 29.847 272.956 30.328V31.1007C272.956 31.7598 273.07 32.3185 273.297 32.7769C273.528 33.2314 273.848 33.578 274.257 33.8167C274.666 34.0515 275.142 34.1689 275.683 34.1689C276.036 34.1689 276.354 34.1197 276.638 34.0212C276.926 33.9189 277.174 33.7674 277.382 33.5667C277.59 33.3621 277.751 33.1083 277.865 32.8053L279.161 33.1689C279.024 33.6083 278.795 33.9947 278.473 34.328C278.151 34.6576 277.753 34.9151 277.28 35.1007C276.806 35.2826 276.274 35.3735 275.683 35.3735ZM281.337 35.1917V26.4644H282.632V27.7826H282.723C282.882 27.3507 283.17 27.0004 283.587 26.7314C284.003 26.4625 284.473 26.328 284.996 26.328C285.094 26.328 285.217 26.3299 285.365 26.3337C285.513 26.3375 285.625 26.3432 285.7 26.3507V27.7144C285.655 27.703 285.551 27.686 285.388 27.6632C285.229 27.6367 285.06 27.6235 284.882 27.6235C284.458 27.6235 284.079 27.7125 283.746 27.8905C283.416 28.0648 283.155 28.3072 282.962 28.6178C282.772 28.9246 282.678 29.275 282.678 29.6689V35.1917H281.337ZM293.472 28.4189L292.267 28.7598C292.191 28.5591 292.08 28.364 291.932 28.1746C291.788 27.9814 291.591 27.8223 291.341 27.6973C291.091 27.5723 290.771 27.5098 290.381 27.5098C289.847 27.5098 289.402 27.6329 289.045 27.8792C288.693 28.1216 288.517 28.4303 288.517 28.8053C288.517 29.1386 288.638 29.4019 288.881 29.5951C289.123 29.7882 289.502 29.9492 290.017 30.078L291.312 30.3962C292.093 30.5856 292.674 30.8754 293.057 31.2655C293.439 31.6519 293.631 32.15 293.631 32.7598C293.631 33.2598 293.487 33.7068 293.199 34.1007C292.915 34.4947 292.517 34.8053 292.006 35.0326C291.494 35.2598 290.9 35.3735 290.222 35.3735C289.331 35.3735 288.595 35.1803 288.011 34.7939C287.428 34.4076 287.059 33.8432 286.903 33.1007L288.176 32.7826C288.297 33.2523 288.527 33.6045 288.864 33.8394C289.205 34.0742 289.65 34.1917 290.199 34.1917C290.824 34.1917 291.32 34.0591 291.688 33.7939C292.059 33.525 292.244 33.203 292.244 32.828C292.244 32.525 292.138 32.2712 291.926 32.0667C291.714 31.8583 291.388 31.703 290.949 31.6007L289.494 31.2598C288.695 31.0704 288.108 30.7769 287.733 30.3792C287.362 29.9776 287.176 29.4757 287.176 28.8735C287.176 28.381 287.314 27.9454 287.591 27.5667C287.871 27.1879 288.252 26.8905 288.733 26.6746C289.218 26.4587 289.767 26.3507 290.381 26.3507C291.244 26.3507 291.922 26.5401 292.415 26.9189C292.911 27.2977 293.263 27.7977 293.472 28.4189ZM297.422 23.5553L297.308 31.9189H295.99L295.876 23.5553H297.422ZM296.649 35.2826C296.369 35.2826 296.128 35.1822 295.928 34.9814C295.727 34.7807 295.626 34.5401 295.626 34.2598C295.626 33.9795 295.727 33.739 295.928 33.5382C296.128 33.3375 296.369 33.2371 296.649 33.2371C296.929 33.2371 297.17 33.3375 297.371 33.5382C297.571 33.739 297.672 33.9795 297.672 34.2598C297.672 34.4454 297.625 34.6159 297.53 34.7712C297.439 34.9265 297.316 35.0515 297.161 35.1462C297.009 35.2371 296.839 35.2826 296.649 35.2826ZM301.875 23.5553L301.761 31.9189H300.443L300.33 23.5553H301.875ZM301.102 35.2826C300.822 35.2826 300.581 35.1822 300.381 34.9814C300.18 34.7807 300.08 34.5401 300.08 34.2598C300.08 33.9795 300.18 33.739 300.381 33.5382C300.581 33.3375 300.822 33.2371 301.102 33.2371C301.383 33.2371 301.623 33.3375 301.824 33.5382C302.025 33.739 302.125 33.9795 302.125 34.2598C302.125 34.4454 302.078 34.6159 301.983 34.7712C301.892 34.9265 301.769 35.0515 301.614 35.1462C301.462 35.2371 301.292 35.2826 301.102 35.2826ZM306.328 23.5553L306.214 31.9189H304.896L304.783 23.5553H306.328ZM305.555 35.2826C305.275 35.2826 305.035 35.1822 304.834 34.9814C304.633 34.7807 304.533 34.5401 304.533 34.2598C304.533 33.9795 304.633 33.739 304.834 33.5382C305.035 33.3375 305.275 33.2371 305.555 33.2371C305.836 33.2371 306.076 33.3375 306.277 33.5382C306.478 33.739 306.578 33.9795 306.578 34.2598C306.578 34.4454 306.531 34.6159 306.436 34.7712C306.345 34.9265 306.222 35.0515 306.067 35.1462C305.915 35.2371 305.745 35.2826 305.555 35.2826ZM310.781 23.5553L310.668 31.9189H309.349L309.236 23.5553H310.781ZM310.009 35.2826C309.728 35.2826 309.488 35.1822 309.287 34.9814C309.086 34.7807 308.986 34.5401 308.986 34.2598C308.986 33.9795 309.086 33.739 309.287 33.5382C309.488 33.3375 309.728 33.2371 310.009 33.2371C310.289 33.2371 310.529 33.3375 310.73 33.5382C310.931 33.739 311.031 33.9795 311.031 34.2598C311.031 34.4454 310.984 34.6159 310.889 34.7712C310.798 34.9265 310.675 35.0515 310.52 35.1462C310.368 35.2371 310.198 35.2826 310.009 35.2826Z" fill="#172D35"/>
<rect x="333" y="10.1917" width="313" height="39" rx="3" fill="#D1ED7E"/>
<path d="M343.773 24.8053V23.5553H352.5V24.8053H348.841V35.1917H347.432V24.8053H343.773ZM355.834 29.9417V35.1917H354.493V23.5553H355.834V27.828H355.947C356.152 27.3773 356.459 27.0193 356.868 26.7542C357.281 26.4852 357.83 26.3507 358.516 26.3507C359.11 26.3507 359.631 26.4701 360.078 26.7087C360.525 26.9435 360.872 27.3053 361.118 27.7939C361.368 28.2788 361.493 28.8962 361.493 29.6462V35.1917H360.152V29.7371C360.152 29.0439 359.972 28.5079 359.612 28.1292C359.256 27.7466 358.762 27.5553 358.129 27.5553C357.69 27.5553 357.296 27.6481 356.947 27.8337C356.603 28.0193 356.33 28.2901 356.129 28.6462C355.932 29.0023 355.834 29.4341 355.834 29.9417ZM363.946 35.1917V26.4644H365.287V35.1917H363.946ZM364.628 25.0098C364.366 25.0098 364.141 24.9208 363.952 24.7428C363.766 24.5648 363.673 24.3507 363.673 24.1007C363.673 23.8507 363.766 23.6367 363.952 23.4587C364.141 23.2807 364.366 23.1917 364.628 23.1917C364.889 23.1917 365.113 23.2807 365.298 23.4587C365.488 23.6367 365.582 23.8507 365.582 24.1007C365.582 24.3507 365.488 24.5648 365.298 24.7428C365.113 24.9208 364.889 25.0098 364.628 25.0098ZM373.925 28.4189L372.72 28.7598C372.644 28.5591 372.533 28.364 372.385 28.1746C372.241 27.9814 372.044 27.8223 371.794 27.6973C371.544 27.5723 371.224 27.5098 370.834 27.5098C370.3 27.5098 369.855 27.6329 369.499 27.8792C369.146 28.1216 368.97 28.4303 368.97 28.8053C368.97 29.1386 369.091 29.4019 369.334 29.5951C369.576 29.7882 369.955 29.9492 370.47 30.078L371.766 30.3962C372.546 30.5856 373.127 30.8754 373.51 31.2655C373.893 31.6519 374.084 32.15 374.084 32.7598C374.084 33.2598 373.94 33.7068 373.652 34.1007C373.368 34.4947 372.97 34.8053 372.459 35.0326C371.947 35.2598 371.353 35.3735 370.675 35.3735C369.785 35.3735 369.048 35.1803 368.464 34.7939C367.881 34.4076 367.512 33.8432 367.357 33.1007L368.629 32.7826C368.75 33.2523 368.98 33.6045 369.317 33.8394C369.658 34.0742 370.103 34.1917 370.652 34.1917C371.277 34.1917 371.773 34.0591 372.141 33.7939C372.512 33.525 372.697 33.203 372.697 32.828C372.697 32.525 372.591 32.2712 372.379 32.0667C372.167 31.8583 371.841 31.703 371.402 31.6007L369.947 31.2598C369.148 31.0704 368.561 30.7769 368.186 30.3792C367.815 29.9776 367.629 29.4757 367.629 28.8735C367.629 28.381 367.768 27.9454 368.044 27.5667C368.324 27.1879 368.705 26.8905 369.186 26.6746C369.671 26.4587 370.22 26.3507 370.834 26.3507C371.697 26.3507 372.375 26.5401 372.868 26.9189C373.364 27.2977 373.716 27.7977 373.925 28.4189ZM384.398 26.4644V27.6007H379.875V26.4644H384.398ZM381.193 24.3735H382.534V32.6917C382.534 33.0704 382.589 33.3545 382.699 33.5439C382.813 33.7295 382.956 33.8545 383.131 33.9189C383.309 33.9795 383.496 34.0098 383.693 34.0098C383.841 34.0098 383.962 34.0023 384.057 33.9871C384.152 33.9682 384.227 33.953 384.284 33.9417L384.557 35.1462C384.466 35.1803 384.339 35.2144 384.176 35.2485C384.013 35.2863 383.807 35.3053 383.557 35.3053C383.178 35.3053 382.807 35.2238 382.443 35.061C382.083 34.8981 381.784 34.65 381.545 34.3167C381.311 33.9833 381.193 33.5629 381.193 33.0553V24.3735ZM389.98 35.3735C389.139 35.3735 388.414 35.1879 387.804 34.8167C387.198 34.4417 386.73 33.9189 386.401 33.2485C386.075 32.5742 385.912 31.7901 385.912 30.8962C385.912 30.0023 386.075 29.2144 386.401 28.5326C386.73 27.847 387.188 27.3129 387.776 26.9303C388.366 26.5439 389.056 26.3507 389.844 26.3507C390.298 26.3507 390.747 26.4265 391.19 26.578C391.634 26.7295 392.037 26.9757 392.401 27.3167C392.764 27.6538 393.054 28.1007 393.27 28.6576C393.486 29.2144 393.594 29.9 393.594 30.7144V31.2826H386.866V30.1235H392.23C392.23 29.631 392.132 29.1917 391.935 28.8053C391.741 28.4189 391.465 28.114 391.105 27.8905C390.749 27.667 390.329 27.5553 389.844 27.5553C389.31 27.5553 388.848 27.6879 388.457 27.953C388.071 28.2144 387.774 28.5553 387.565 28.9757C387.357 29.3962 387.253 29.847 387.253 30.328V31.1007C387.253 31.7598 387.366 32.3185 387.594 32.7769C387.825 33.2314 388.145 33.578 388.554 33.8167C388.963 34.0515 389.438 34.1689 389.98 34.1689C390.332 34.1689 390.651 34.1197 390.935 34.0212C391.223 33.9189 391.471 33.7674 391.679 33.5667C391.887 33.3621 392.048 33.1083 392.162 32.8053L393.457 33.1689C393.321 33.6083 393.092 33.9947 392.77 34.328C392.448 34.6576 392.05 34.9151 391.577 35.1007C391.103 35.2826 390.571 35.3735 389.98 35.3735ZM396.399 26.4644L398.49 30.0326L400.581 26.4644H402.126L399.308 30.828L402.126 35.1917H400.581L398.49 31.8053L396.399 35.1917H394.854L397.626 30.828L394.854 26.4644H396.399ZM407.835 26.4644V27.6007H403.312V26.4644H407.835ZM404.631 24.3735H405.972V32.6917C405.972 33.0704 406.027 33.3545 406.136 33.5439C406.25 33.7295 406.394 33.8545 406.568 33.9189C406.746 33.9795 406.934 34.0098 407.131 34.0098C407.278 34.0098 407.4 34.0023 407.494 33.9871C407.589 33.9682 407.665 33.953 407.722 33.9417L407.994 35.1462C407.903 35.1803 407.777 35.2144 407.614 35.2485C407.451 35.2863 407.244 35.3053 406.994 35.3053C406.616 35.3053 406.244 35.2238 405.881 35.061C405.521 34.8981 405.222 34.65 404.983 34.3167C404.748 33.9833 404.631 33.5629 404.631 33.0553V24.3735ZM417.898 35.3735C417.08 35.3735 416.375 35.1803 415.784 34.7939C415.193 34.4076 414.739 33.8754 414.42 33.1973C414.102 32.5193 413.943 31.7447 413.943 30.8735C413.943 29.9871 414.106 29.2049 414.432 28.5269C414.761 27.8451 415.22 27.3129 415.807 26.9303C416.398 26.5439 417.087 26.3507 417.875 26.3507C418.489 26.3507 419.042 26.4644 419.534 26.6917C420.027 26.9189 420.43 27.2371 420.744 27.6462C421.059 28.0553 421.254 28.5326 421.33 29.078H419.989C419.886 28.6803 419.659 28.328 419.307 28.0212C418.958 27.7106 418.489 27.5553 417.898 27.5553C417.375 27.5553 416.917 27.6917 416.523 27.9644C416.133 28.2333 415.828 28.614 415.608 29.1064C415.392 29.5951 415.284 30.1689 415.284 30.828C415.284 31.5023 415.39 32.0894 415.602 32.5894C415.818 33.0894 416.121 33.4776 416.511 33.7542C416.905 34.0307 417.367 34.1689 417.898 34.1689C418.246 34.1689 418.562 34.1083 418.847 33.9871C419.131 33.8659 419.371 33.6917 419.568 33.4644C419.765 33.2371 419.905 32.9644 419.989 32.6462H421.33C421.254 33.1613 421.066 33.6254 420.767 34.0382C420.472 34.4473 420.08 34.7731 419.591 35.0155C419.106 35.2542 418.542 35.3735 417.898 35.3735ZM425.858 35.3962C425.305 35.3962 424.803 35.292 424.352 35.0837C423.902 34.8716 423.544 34.5667 423.278 34.1689C423.013 33.7674 422.881 33.2826 422.881 32.7144C422.881 32.2144 422.979 31.8091 423.176 31.4985C423.373 31.1841 423.636 30.9379 423.966 30.7598C424.295 30.5818 424.659 30.4492 425.057 30.3621C425.458 30.2712 425.862 30.1992 426.267 30.1462C426.797 30.078 427.227 30.0269 427.557 29.9928C427.89 29.9549 428.133 29.8924 428.284 29.8053C428.439 29.7182 428.517 29.5667 428.517 29.3507V29.3053C428.517 28.7447 428.364 28.3091 428.057 27.9985C427.754 27.6879 427.294 27.5326 426.676 27.5326C426.036 27.5326 425.534 27.6727 425.17 27.953C424.807 28.2333 424.551 28.5326 424.403 28.8507L423.131 28.3962C423.358 27.8659 423.661 27.453 424.04 27.1576C424.422 26.8583 424.839 26.65 425.29 26.5326C425.744 26.4113 426.191 26.3507 426.631 26.3507C426.911 26.3507 427.233 26.3848 427.597 26.453C427.964 26.5174 428.318 26.6519 428.659 26.8564C429.004 27.061 429.29 27.3697 429.517 27.7826C429.744 28.1954 429.858 28.7485 429.858 29.4417V35.1917H428.517V34.0098H428.449C428.358 34.1992 428.206 34.4019 427.994 34.6178C427.782 34.8337 427.5 35.0174 427.148 35.1689C426.795 35.3204 426.366 35.3962 425.858 35.3962ZM426.062 34.1917C426.593 34.1917 427.04 34.0875 427.403 33.8792C427.771 33.6708 428.047 33.4019 428.233 33.0723C428.422 32.7428 428.517 32.3962 428.517 32.0326V30.8053C428.46 30.8735 428.335 30.936 428.142 30.9928C427.953 31.0458 427.733 31.0932 427.483 31.1348C427.237 31.1727 426.996 31.2068 426.761 31.2371C426.53 31.2636 426.343 31.2863 426.199 31.3053C425.85 31.3507 425.525 31.4246 425.222 31.5269C424.922 31.6254 424.68 31.775 424.494 31.9757C424.313 32.1727 424.222 32.4417 424.222 32.7826C424.222 33.2485 424.394 33.6007 424.739 33.8394C425.087 34.0742 425.528 34.1917 426.062 34.1917ZM433.646 29.9417V35.1917H432.305V26.4644H433.601V27.828H433.714C433.919 27.3848 434.23 27.0288 434.646 26.7598C435.063 26.4871 435.601 26.3507 436.26 26.3507C436.851 26.3507 437.368 26.472 437.811 26.7144C438.254 26.953 438.599 27.3167 438.845 27.8053C439.091 28.2901 439.214 28.9038 439.214 29.6462V35.1917H437.874V29.7371C437.874 29.0515 437.696 28.5174 437.339 28.1348C436.983 27.7485 436.495 27.5553 435.874 27.5553C435.446 27.5553 435.063 27.6481 434.726 27.8337C434.393 28.0193 434.129 28.2901 433.936 28.6462C433.743 29.0023 433.646 29.4341 433.646 29.9417ZM446.347 35.1917V23.5553H447.688V27.8507H447.801C447.9 27.6992 448.036 27.506 448.21 27.2712C448.388 27.0326 448.642 26.8204 448.972 26.6348C449.305 26.4454 449.756 26.3507 450.324 26.3507C451.059 26.3507 451.706 26.5345 452.267 26.9019C452.828 27.2693 453.265 27.7901 453.58 28.4644C453.894 29.1386 454.051 29.9341 454.051 30.8507C454.051 31.775 453.894 32.5761 453.58 33.2542C453.265 33.9284 452.83 34.4511 452.273 34.8223C451.716 35.1898 451.074 35.3735 450.347 35.3735C449.786 35.3735 449.337 35.2807 449 35.0951C448.663 34.9057 448.403 34.6917 448.222 34.453C448.04 34.2106 447.9 34.0098 447.801 33.8507H447.642V35.1917H446.347ZM447.665 30.828C447.665 31.4871 447.761 32.0685 447.955 32.5723C448.148 33.0723 448.43 33.4644 448.801 33.7485C449.172 34.0288 449.627 34.1689 450.165 34.1689C450.725 34.1689 451.193 34.0212 451.568 33.7257C451.947 33.4265 452.231 33.025 452.42 32.5212C452.614 32.0136 452.71 31.4492 452.71 30.828C452.71 30.2144 452.616 29.6613 452.426 29.1689C452.241 28.6727 451.958 28.2807 451.58 27.9928C451.205 27.7011 450.733 27.5553 450.165 27.5553C449.619 27.5553 449.161 27.6935 448.79 27.9701C448.419 28.2428 448.138 28.6254 447.949 29.1178C447.759 29.6064 447.665 30.1765 447.665 30.828ZM459.761 35.3735C458.92 35.3735 458.195 35.1879 457.585 34.8167C456.979 34.4417 456.511 33.9189 456.182 33.2485C455.856 32.5742 455.693 31.7901 455.693 30.8962C455.693 30.0023 455.856 29.2144 456.182 28.5326C456.511 27.847 456.97 27.3129 457.557 26.9303C458.148 26.5439 458.837 26.3507 459.625 26.3507C460.08 26.3507 460.528 26.4265 460.972 26.578C461.415 26.7295 461.818 26.9757 462.182 27.3167C462.545 27.6538 462.835 28.1007 463.051 28.6576C463.267 29.2144 463.375 29.9 463.375 30.7144V31.2826H456.648V30.1235H462.011C462.011 29.631 461.913 29.1917 461.716 28.8053C461.523 28.4189 461.246 28.114 460.886 27.8905C460.53 27.667 460.11 27.5553 459.625 27.5553C459.091 27.5553 458.629 27.6879 458.239 27.953C457.852 28.2144 457.555 28.5553 457.347 28.9757C457.138 29.3962 457.034 29.847 457.034 30.328V31.1007C457.034 31.7598 457.148 32.3185 457.375 32.7769C457.606 33.2314 457.926 33.578 458.335 33.8167C458.744 34.0515 459.22 34.1689 459.761 34.1689C460.114 34.1689 460.432 34.1197 460.716 34.0212C461.004 33.9189 461.252 33.7674 461.46 33.5667C461.669 33.3621 461.83 33.1083 461.943 32.8053L463.239 33.1689C463.102 33.6083 462.873 33.9947 462.551 34.328C462.229 34.6576 461.831 34.9151 461.358 35.1007C460.884 35.2826 460.352 35.3735 459.761 35.3735ZM475.415 31.6235V26.4644H476.756V35.1917H475.415V33.7144H475.324C475.119 34.1576 474.801 34.5345 474.369 34.8451C473.938 35.1519 473.392 35.3053 472.733 35.3053C472.188 35.3053 471.703 35.186 471.278 34.9473C470.854 34.7049 470.521 34.3413 470.278 33.8564C470.036 33.3678 469.915 32.7523 469.915 32.0098V26.4644H471.256V31.9189C471.256 32.5553 471.434 33.0629 471.79 33.4417C472.15 33.8204 472.608 34.0098 473.165 34.0098C473.498 34.0098 473.837 33.9246 474.182 33.7542C474.53 33.5837 474.822 33.3223 475.057 32.9701C475.295 32.6178 475.415 32.1689 475.415 31.6235ZM479.212 38.4644V26.4644H480.507V27.8507H480.666C480.765 27.6992 480.901 27.506 481.075 27.2712C481.253 27.0326 481.507 26.8204 481.837 26.6348C482.17 26.4454 482.621 26.3507 483.189 26.3507C483.924 26.3507 484.571 26.5345 485.132 26.9019C485.693 27.2693 486.13 27.7901 486.445 28.4644C486.759 29.1386 486.916 29.9341 486.916 30.8507C486.916 31.775 486.759 32.5761 486.445 33.2542C486.13 33.9284 485.695 34.4511 485.138 34.8223C484.581 35.1898 483.939 35.3735 483.212 35.3735C482.651 35.3735 482.202 35.2807 481.865 35.0951C481.528 34.9057 481.268 34.6917 481.087 34.453C480.905 34.2106 480.765 34.0098 480.666 33.8507H480.553V38.4644H479.212ZM480.53 30.828C480.53 31.4871 480.626 32.0685 480.82 32.5723C481.013 33.0723 481.295 33.4644 481.666 33.7485C482.037 34.0288 482.492 34.1689 483.03 34.1689C483.59 34.1689 484.058 34.0212 484.433 33.7257C484.812 33.4265 485.096 33.025 485.286 32.5212C485.479 32.0136 485.575 31.4492 485.575 30.828C485.575 30.2144 485.481 29.6613 485.291 29.1689C485.106 28.6727 484.823 28.2807 484.445 27.9928C484.07 27.7011 483.598 27.5553 483.03 27.5553C482.484 27.5553 482.026 27.6935 481.655 27.9701C481.284 28.2428 481.003 28.6254 480.814 29.1178C480.625 29.6064 480.53 30.1765 480.53 30.828ZM497.257 26.4644V27.6007H492.734V26.4644H497.257ZM494.053 24.3735H495.393V32.6917C495.393 33.0704 495.448 33.3545 495.558 33.5439C495.672 33.7295 495.816 33.8545 495.99 33.9189C496.168 33.9795 496.356 34.0098 496.553 34.0098C496.7 34.0098 496.821 34.0023 496.916 33.9871C497.011 33.9682 497.087 33.953 497.143 33.9417L497.416 35.1462C497.325 35.1803 497.198 35.2144 497.036 35.2485C496.873 35.2863 496.666 35.3053 496.416 35.3053C496.037 35.3053 495.666 35.2238 495.303 35.061C494.943 34.8981 494.643 34.65 494.405 34.3167C494.17 33.9833 494.053 33.5629 494.053 33.0553V24.3735ZM502.726 35.3735C501.938 35.3735 501.247 35.186 500.652 34.811C500.061 34.436 499.599 33.9113 499.266 33.2371C498.936 32.5629 498.771 31.775 498.771 30.8735C498.771 29.9644 498.936 29.1708 499.266 28.4928C499.599 27.8148 500.061 27.2882 500.652 26.9132C501.247 26.5382 501.938 26.3507 502.726 26.3507C503.514 26.3507 504.203 26.5382 504.794 26.9132C505.389 27.2882 505.851 27.8148 506.18 28.4928C506.514 29.1708 506.68 29.9644 506.68 30.8735C506.68 31.775 506.514 32.5629 506.18 33.2371C505.851 33.9113 505.389 34.436 504.794 34.811C504.203 35.186 503.514 35.3735 502.726 35.3735ZM502.726 34.1689C503.324 34.1689 503.817 34.0155 504.203 33.7087C504.589 33.4019 504.875 32.9985 505.061 32.4985C505.247 31.9985 505.339 31.4568 505.339 30.8735C505.339 30.2901 505.247 29.7466 505.061 29.2428C504.875 28.739 504.589 28.3318 504.203 28.0212C503.817 27.7106 503.324 27.5553 502.726 27.5553C502.127 27.5553 501.635 27.7106 501.249 28.0212C500.862 28.3318 500.576 28.739 500.391 29.2428C500.205 29.7466 500.112 30.2901 500.112 30.8735C500.112 31.4568 500.205 31.9985 500.391 32.4985C500.576 32.9985 500.862 33.4019 501.249 33.7087C501.635 34.0155 502.127 34.1689 502.726 34.1689ZM512.932 32.8053V31.6462L518.045 23.5553H518.886V25.3507H518.318L514.455 31.4644V31.5553H521.341V32.8053H512.932ZM518.409 35.1917V32.453V31.9132V23.5553H519.75V35.1917H518.409ZM527.266 35.3507C526.41 35.3507 525.68 35.1178 525.078 34.6519C524.476 34.1822 524.016 33.5023 523.697 32.6121C523.379 31.7182 523.22 30.6386 523.22 29.3735C523.22 28.1159 523.379 27.042 523.697 26.1519C524.019 25.2579 524.482 24.5761 525.084 24.1064C525.69 23.6329 526.417 23.3962 527.266 23.3962C528.114 23.3962 528.839 23.6329 529.442 24.1064C530.048 24.5761 530.51 25.2579 530.828 26.1519C531.15 27.042 531.311 28.1159 531.311 29.3735C531.311 30.6386 531.152 31.7182 530.834 32.6121C530.516 33.5023 530.055 34.1822 529.453 34.6519C528.851 35.1178 528.122 35.3507 527.266 35.3507ZM527.266 34.1007C528.114 34.1007 528.773 33.6917 529.243 32.8735C529.713 32.0553 529.947 30.8886 529.947 29.3735C529.947 28.3659 529.839 27.5079 529.624 26.7996C529.411 26.0913 529.105 25.5515 528.703 25.1803C528.305 24.8091 527.826 24.6235 527.266 24.6235C526.425 24.6235 525.768 25.0382 525.294 25.8678C524.821 26.6935 524.584 27.8621 524.584 29.3735C524.584 30.381 524.69 31.2371 524.902 31.9417C525.114 32.6462 525.419 33.1822 525.817 33.5496C526.218 33.917 526.701 34.1007 527.266 34.1007ZM541.538 35.3735C540.72 35.3735 540.016 35.1803 539.425 34.7939C538.834 34.4076 538.379 33.8754 538.061 33.1973C537.743 32.5193 537.584 31.7447 537.584 30.8735C537.584 29.9871 537.747 29.2049 538.072 28.5269C538.402 27.8451 538.86 27.3129 539.447 26.9303C540.038 26.5439 540.728 26.3507 541.516 26.3507C542.129 26.3507 542.682 26.4644 543.175 26.6917C543.667 26.9189 544.071 27.2371 544.385 27.6462C544.699 28.0553 544.894 28.5326 544.97 29.078H543.629C543.527 28.6803 543.3 28.328 542.947 28.0212C542.599 27.7106 542.129 27.5553 541.538 27.5553C541.016 27.5553 540.557 27.6917 540.163 27.9644C539.773 28.2333 539.468 28.614 539.249 29.1064C539.033 29.5951 538.925 30.1689 538.925 30.828C538.925 31.5023 539.031 32.0894 539.243 32.5894C539.459 33.0894 539.762 33.4776 540.152 33.7542C540.546 34.0307 541.008 34.1689 541.538 34.1689C541.887 34.1689 542.203 34.1083 542.487 33.9871C542.771 33.8659 543.012 33.6917 543.209 33.4644C543.406 33.2371 543.546 32.9644 543.629 32.6462H544.97C544.894 33.1613 544.707 33.6254 544.408 34.0382C544.112 34.4473 543.72 34.7731 543.232 35.0155C542.747 35.2542 542.182 35.3735 541.538 35.3735ZM548.271 29.9417V35.1917H546.93V23.5553H548.271V27.828H548.385C548.589 27.3773 548.896 27.0193 549.305 26.7542C549.718 26.4852 550.268 26.3507 550.953 26.3507C551.548 26.3507 552.069 26.4701 552.516 26.7087C552.963 26.9435 553.309 27.3053 553.555 27.7939C553.805 28.2788 553.93 28.8962 553.93 29.6462V35.1917H552.589V29.7371C552.589 29.0439 552.41 28.5079 552.05 28.1292C551.694 27.7466 551.199 27.5553 550.567 27.5553C550.127 27.5553 549.733 27.6481 549.385 27.8337C549.04 28.0193 548.768 28.2901 548.567 28.6462C548.37 29.0023 548.271 29.4341 548.271 29.9417ZM558.952 35.3962C558.399 35.3962 557.897 35.292 557.446 35.0837C556.995 34.8716 556.637 34.5667 556.372 34.1689C556.107 33.7674 555.974 33.2826 555.974 32.7144C555.974 32.2144 556.073 31.8091 556.27 31.4985C556.467 31.1841 556.73 30.9379 557.06 30.7598C557.389 30.5818 557.753 30.4492 558.151 30.3621C558.552 30.2712 558.955 30.1992 559.361 30.1462C559.891 30.078 560.321 30.0269 560.651 29.9928C560.984 29.9549 561.226 29.8924 561.378 29.8053C561.533 29.7182 561.611 29.5667 561.611 29.3507V29.3053C561.611 28.7447 561.457 28.3091 561.151 27.9985C560.848 27.6879 560.387 27.5326 559.77 27.5326C559.13 27.5326 558.628 27.6727 558.264 27.953C557.901 28.2333 557.645 28.5326 557.497 28.8507L556.224 28.3962C556.452 27.8659 556.755 27.453 557.134 27.1576C557.516 26.8583 557.933 26.65 558.384 26.5326C558.838 26.4113 559.285 26.3507 559.724 26.3507C560.005 26.3507 560.327 26.3848 560.69 26.453C561.058 26.5174 561.412 26.6519 561.753 26.8564C562.098 27.061 562.384 27.3697 562.611 27.7826C562.838 28.1954 562.952 28.7485 562.952 29.4417V35.1917H561.611V34.0098H561.543C561.452 34.1992 561.3 34.4019 561.088 34.6178C560.876 34.8337 560.594 35.0174 560.241 35.1689C559.889 35.3204 559.459 35.3962 558.952 35.3962ZM559.156 34.1917C559.687 34.1917 560.134 34.0875 560.497 33.8792C560.865 33.6708 561.141 33.4019 561.327 33.0723C561.516 32.7428 561.611 32.3962 561.611 32.0326V30.8053C561.554 30.8735 561.429 30.936 561.236 30.9928C561.046 31.0458 560.827 31.0932 560.577 31.1348C560.33 31.1727 560.09 31.2068 559.855 31.2371C559.624 31.2636 559.437 31.2863 559.293 31.3053C558.944 31.3507 558.618 31.4246 558.315 31.5269C558.016 31.6254 557.774 31.775 557.588 31.9757C557.406 32.1727 557.315 32.4417 557.315 32.7826C557.315 33.2485 557.488 33.6007 557.832 33.8394C558.181 34.0742 558.622 34.1917 559.156 34.1917ZM565.399 35.1917V26.4644H566.695V27.7826H566.786C566.945 27.3507 567.232 27.0004 567.649 26.7314C568.066 26.4625 568.536 26.328 569.058 26.328C569.157 26.328 569.28 26.3299 569.428 26.3337C569.575 26.3375 569.687 26.3432 569.763 26.3507V27.7144C569.717 27.703 569.613 27.686 569.45 27.6632C569.291 27.6367 569.123 27.6235 568.945 27.6235C568.52 27.6235 568.142 27.7125 567.808 27.8905C567.479 28.0648 567.217 28.3072 567.024 28.6178C566.835 28.9246 566.74 29.275 566.74 29.6689V35.1917H565.399ZM573.92 35.3962C573.367 35.3962 572.866 35.292 572.415 35.0837C571.964 34.8716 571.606 34.5667 571.341 34.1689C571.076 33.7674 570.943 33.2826 570.943 32.7144C570.943 32.2144 571.042 31.8091 571.239 31.4985C571.436 31.1841 571.699 30.9379 572.028 30.7598C572.358 30.5818 572.722 30.4492 573.119 30.3621C573.521 30.2712 573.924 30.1992 574.33 30.1462C574.86 30.078 575.29 30.0269 575.619 29.9928C575.953 29.9549 576.195 29.8924 576.347 29.8053C576.502 29.7182 576.58 29.5667 576.58 29.3507V29.3053C576.58 28.7447 576.426 28.3091 576.119 27.9985C575.816 27.6879 575.356 27.5326 574.739 27.5326C574.098 27.5326 573.597 27.6727 573.233 27.953C572.869 28.2333 572.614 28.5326 572.466 28.8507L571.193 28.3962C571.42 27.8659 571.723 27.453 572.102 27.1576C572.485 26.8583 572.902 26.65 573.352 26.5326C573.807 26.4113 574.254 26.3507 574.693 26.3507C574.973 26.3507 575.295 26.3848 575.659 26.453C576.027 26.5174 576.381 26.6519 576.722 26.8564C577.066 27.061 577.352 27.3697 577.58 27.7826C577.807 28.1954 577.92 28.7485 577.92 29.4417V35.1917H576.58V34.0098H576.511C576.42 34.1992 576.269 34.4019 576.057 34.6178C575.845 34.8337 575.563 35.0174 575.21 35.1689C574.858 35.3204 574.428 35.3962 573.92 35.3962ZM574.125 34.1917C574.655 34.1917 575.102 34.0875 575.466 33.8792C575.833 33.6708 576.11 33.4019 576.295 33.0723C576.485 32.7428 576.58 32.3962 576.58 32.0326V30.8053C576.523 30.8735 576.398 30.936 576.205 30.9928C576.015 31.0458 575.795 31.0932 575.545 31.1348C575.299 31.1727 575.059 31.2068 574.824 31.2371C574.593 31.2636 574.405 31.2863 574.261 31.3053C573.913 31.3507 573.587 31.4246 573.284 31.5269C572.985 31.6254 572.742 31.775 572.557 31.9757C572.375 32.1727 572.284 32.4417 572.284 32.7826C572.284 33.2485 572.456 33.6007 572.801 33.8394C573.15 34.0742 573.591 34.1917 574.125 34.1917ZM583.913 35.3735C583.095 35.3735 582.391 35.1803 581.8 34.7939C581.209 34.4076 580.754 33.8754 580.436 33.1973C580.118 32.5193 579.959 31.7447 579.959 30.8735C579.959 29.9871 580.122 29.2049 580.447 28.5269C580.777 27.8451 581.235 27.3129 581.822 26.9303C582.413 26.5439 583.103 26.3507 583.891 26.3507C584.504 26.3507 585.057 26.4644 585.55 26.6917C586.042 26.9189 586.446 27.2371 586.76 27.6462C587.074 28.0553 587.269 28.5326 587.345 29.078H586.004C585.902 28.6803 585.675 28.328 585.322 28.0212C584.974 27.7106 584.504 27.5553 583.913 27.5553C583.391 27.5553 582.932 27.6917 582.538 27.9644C582.148 28.2333 581.843 28.614 581.624 29.1064C581.408 29.5951 581.3 30.1689 581.3 30.828C581.3 31.5023 581.406 32.0894 581.618 32.5894C581.834 33.0894 582.137 33.4776 582.527 33.7542C582.921 34.0307 583.383 34.1689 583.913 34.1689C584.262 34.1689 584.578 34.1083 584.862 33.9871C585.146 33.8659 585.387 33.6917 585.584 33.4644C585.781 33.2371 585.921 32.9644 586.004 32.6462H587.345C587.269 33.1613 587.082 33.6254 586.783 34.0382C586.487 34.4473 586.095 34.7731 585.607 35.0155C585.122 35.2542 584.557 35.3735 583.913 35.3735ZM593.101 26.4644V27.6007H588.578V26.4644H593.101ZM589.896 24.3735H591.237V32.6917C591.237 33.0704 591.292 33.3545 591.402 33.5439C591.516 33.7295 591.66 33.8545 591.834 33.9189C592.012 33.9795 592.199 34.0098 592.396 34.0098C592.544 34.0098 592.665 34.0023 592.76 33.9871C592.855 33.9682 592.93 33.953 592.987 33.9417L593.26 35.1462C593.169 35.1803 593.042 35.2144 592.879 35.2485C592.716 35.2863 592.51 35.3053 592.26 35.3053C591.881 35.3053 591.51 35.2238 591.146 35.061C590.786 34.8981 590.487 34.65 590.249 34.3167C590.014 33.9833 589.896 33.5629 589.896 33.0553V24.3735ZM598.683 35.3735C597.842 35.3735 597.117 35.1879 596.507 34.8167C595.901 34.4417 595.433 33.9189 595.104 33.2485C594.778 32.5742 594.615 31.7901 594.615 30.8962C594.615 30.0023 594.778 29.2144 595.104 28.5326C595.433 27.847 595.892 27.3129 596.479 26.9303C597.07 26.5439 597.759 26.3507 598.547 26.3507C599.001 26.3507 599.45 26.4265 599.893 26.578C600.337 26.7295 600.74 26.9757 601.104 27.3167C601.467 27.6538 601.757 28.1007 601.973 28.6576C602.189 29.2144 602.297 29.9 602.297 30.7144V31.2826H595.57V30.1235H600.933C600.933 29.631 600.835 29.1917 600.638 28.8053C600.445 28.4189 600.168 28.114 599.808 27.8905C599.452 27.667 599.032 27.5553 598.547 27.5553C598.013 27.5553 597.551 27.6879 597.161 27.953C596.774 28.2144 596.477 28.5553 596.268 28.9757C596.06 29.3962 595.956 29.847 595.956 30.328V31.1007C595.956 31.7598 596.07 32.3185 596.297 32.7769C596.528 33.2314 596.848 33.578 597.257 33.8167C597.666 34.0515 598.142 34.1689 598.683 34.1689C599.036 34.1689 599.354 34.1197 599.638 34.0212C599.926 33.9189 600.174 33.7674 600.382 33.5667C600.59 33.3621 600.751 33.1083 600.865 32.8053L602.161 33.1689C602.024 33.6083 601.795 33.9947 601.473 34.328C601.151 34.6576 600.753 34.9151 600.28 35.1007C599.806 35.2826 599.274 35.3735 598.683 35.3735ZM604.337 35.1917V26.4644H605.632V27.7826H605.723C605.882 27.3507 606.17 27.0004 606.587 26.7314C607.003 26.4625 607.473 26.328 607.996 26.328C608.094 26.328 608.217 26.3299 608.365 26.3337C608.513 26.3375 608.625 26.3432 608.7 26.3507V27.7144C608.655 27.703 608.551 27.686 608.388 27.6632C608.229 27.6367 608.06 27.6235 607.882 27.6235C607.458 27.6235 607.079 27.7125 606.746 27.8905C606.416 28.0648 606.155 28.3072 605.962 28.6178C605.772 28.9246 605.678 29.275 605.678 29.6689V35.1917H604.337ZM616.472 28.4189L615.267 28.7598C615.191 28.5591 615.08 28.364 614.932 28.1746C614.788 27.9814 614.591 27.8223 614.341 27.6973C614.091 27.5723 613.771 27.5098 613.381 27.5098C612.847 27.5098 612.402 27.6329 612.045 27.8792C611.693 28.1216 611.517 28.4303 611.517 28.8053C611.517 29.1386 611.638 29.4019 611.881 29.5951C612.123 29.7882 612.502 29.9492 613.017 30.078L614.312 30.3962C615.093 30.5856 615.674 30.8754 616.057 31.2655C616.439 31.6519 616.631 32.15 616.631 32.7598C616.631 33.2598 616.487 33.7068 616.199 34.1007C615.915 34.4947 615.517 34.8053 615.006 35.0326C614.494 35.2598 613.9 35.3735 613.222 35.3735C612.331 35.3735 611.595 35.1803 611.011 34.7939C610.428 34.4076 610.059 33.8432 609.903 33.1007L611.176 32.7826C611.297 33.2523 611.527 33.6045 611.864 33.8394C612.205 34.0742 612.65 34.1917 613.199 34.1917C613.824 34.1917 614.32 34.0591 614.688 33.7939C615.059 33.525 615.244 33.203 615.244 32.828C615.244 32.525 615.138 32.2712 614.926 32.0667C614.714 31.8583 614.388 31.703 613.949 31.6007L612.494 31.2598C611.695 31.0704 611.108 30.7769 610.733 30.3792C610.362 29.9776 610.176 29.4757 610.176 28.8735C610.176 28.381 610.314 27.9454 610.591 27.5667C610.871 27.1879 611.252 26.8905 611.733 26.6746C612.218 26.4587 612.767 26.3507 613.381 26.3507C614.244 26.3507 614.922 26.5401 615.415 26.9189C615.911 27.2977 616.263 27.7977 616.472 28.4189ZM620.422 23.5553L620.308 31.9189H618.99L618.876 23.5553H620.422ZM619.649 35.2826C619.369 35.2826 619.128 35.1822 618.928 34.9814C618.727 34.7807 618.626 34.5401 618.626 34.2598C618.626 33.9795 618.727 33.739 618.928 33.5382C619.128 33.3375 619.369 33.2371 619.649 33.2371C619.929 33.2371 620.17 33.3375 620.371 33.5382C620.571 33.739 620.672 33.9795 620.672 34.2598C620.672 34.4454 620.625 34.6159 620.53 34.7712C620.439 34.9265 620.316 35.0515 620.161 35.1462C620.009 35.2371 619.839 35.2826 619.649 35.2826ZM624.875 23.5553L624.761 31.9189H623.443L623.33 23.5553H624.875ZM624.102 35.2826C623.822 35.2826 623.581 35.1822 623.381 34.9814C623.18 34.7807 623.08 34.5401 623.08 34.2598C623.08 33.9795 623.18 33.739 623.381 33.5382C623.581 33.3375 623.822 33.2371 624.102 33.2371C624.383 33.2371 624.623 33.3375 624.824 33.5382C625.025 33.739 625.125 33.9795 625.125 34.2598C625.125 34.4454 625.078 34.6159 624.983 34.7712C624.892 34.9265 624.769 35.0515 624.614 35.1462C624.462 35.2371 624.292 35.2826 624.102 35.2826ZM629.328 23.5553L629.214 31.9189H627.896L627.783 23.5553H629.328ZM628.555 35.2826C628.275 35.2826 628.035 35.1822 627.834 34.9814C627.633 34.7807 627.533 34.5401 627.533 34.2598C627.533 33.9795 627.633 33.739 627.834 33.5382C628.035 33.3375 628.275 33.2371 628.555 33.2371C628.836 33.2371 629.076 33.3375 629.277 33.5382C629.478 33.739 629.578 33.9795 629.578 34.2598C629.578 34.4454 629.531 34.6159 629.436 34.7712C629.345 34.9265 629.222 35.0515 629.067 35.1462C628.915 35.2371 628.745 35.2826 628.555 35.2826ZM633.781 23.5553L633.668 31.9189H632.349L632.236 23.5553H633.781ZM633.009 35.2826C632.728 35.2826 632.488 35.1822 632.287 34.9814C632.086 34.7807 631.986 34.5401 631.986 34.2598C631.986 33.9795 632.086 33.739 632.287 33.5382C632.488 33.3375 632.728 33.2371 633.009 33.2371C633.289 33.2371 633.529 33.3375 633.73 33.5382C633.931 33.739 634.031 33.9795 634.031 34.2598C634.031 34.4454 633.984 34.6159 633.889 34.7712C633.798 34.9265 633.675 35.0515 633.52 35.1462C633.368 35.2371 633.198 35.2826 633.009 35.2826Z" fill="#172D35"/>
<path d="M893.773 27.1917H892.364C892.28 26.7863 892.134 26.4303 891.926 26.1235C891.722 25.8167 891.472 25.5591 891.176 25.3507C890.884 25.1386 890.561 24.9795 890.205 24.8735C889.848 24.7674 889.477 24.7144 889.091 24.7144C888.386 24.7144 887.748 24.8924 887.176 25.2485C886.608 25.6045 886.155 26.1292 885.818 26.8223C885.485 27.5155 885.318 28.3659 885.318 29.3735C885.318 30.381 885.485 31.2314 885.818 31.9246C886.155 32.6178 886.608 33.1424 887.176 33.4985C887.748 33.8545 888.386 34.0326 889.091 34.0326C889.477 34.0326 889.848 33.9795 890.205 33.8735C890.561 33.7674 890.884 33.6102 891.176 33.4019C891.472 33.1898 891.722 32.9303 891.926 32.6235C892.134 32.3129 892.28 31.9568 892.364 31.5553H893.773C893.667 32.15 893.473 32.6822 893.193 33.1519C892.913 33.6216 892.564 34.0212 892.148 34.3507C891.731 34.6765 891.263 34.9246 890.744 35.0951C890.229 35.2655 889.678 35.3507 889.091 35.3507C888.098 35.3507 887.216 35.1083 886.443 34.6235C885.67 34.1386 885.063 33.4492 884.619 32.5553C884.176 31.6613 883.955 30.6007 883.955 29.3735C883.955 28.1462 884.176 27.0856 884.619 26.1917C885.063 25.2977 885.67 24.6083 886.443 24.1235C887.216 23.6386 888.098 23.3962 889.091 23.3962C889.678 23.3962 890.229 23.4814 890.744 23.6519C891.263 23.8223 891.731 24.0723 892.148 24.4019C892.564 24.7276 892.913 25.1254 893.193 25.5951C893.473 26.061 893.667 26.5932 893.773 27.1917ZM898.436 35.3962C897.883 35.3962 897.381 35.292 896.93 35.0837C896.48 34.8716 896.122 34.5667 895.857 34.1689C895.591 33.7674 895.459 33.2826 895.459 32.7144C895.459 32.2144 895.557 31.8091 895.754 31.4985C895.951 31.1841 896.214 30.9379 896.544 30.7598C896.874 30.5818 897.237 30.4492 897.635 30.3621C898.036 30.2712 898.44 30.1992 898.845 30.1462C899.375 30.078 899.805 30.0269 900.135 29.9928C900.468 29.9549 900.711 29.8924 900.862 29.8053C901.018 29.7182 901.095 29.5667 901.095 29.3507V29.3053C901.095 28.7447 900.942 28.3091 900.635 27.9985C900.332 27.6879 899.872 27.5326 899.254 27.5326C898.614 27.5326 898.112 27.6727 897.749 27.953C897.385 28.2333 897.129 28.5326 896.982 28.8507L895.709 28.3962C895.936 27.8659 896.239 27.453 896.618 27.1576C897 26.8583 897.417 26.65 897.868 26.5326C898.322 26.4113 898.769 26.3507 899.209 26.3507C899.489 26.3507 899.811 26.3848 900.175 26.453C900.542 26.5174 900.896 26.6519 901.237 26.8564C901.582 27.061 901.868 27.3697 902.095 27.7826C902.322 28.1954 902.436 28.7485 902.436 29.4417V35.1917H901.095V34.0098H901.027C900.936 34.1992 900.785 34.4019 900.572 34.6178C900.36 34.8337 900.078 35.0174 899.726 35.1689C899.374 35.3204 898.944 35.3962 898.436 35.3962ZM898.641 34.1917C899.171 34.1917 899.618 34.0875 899.982 33.8792C900.349 33.6708 900.625 33.4019 900.811 33.0723C901 32.7428 901.095 32.3962 901.095 32.0326V30.8053C901.038 30.8735 900.913 30.936 900.72 30.9928C900.531 31.0458 900.311 31.0932 900.061 31.1348C899.815 31.1727 899.574 31.2068 899.339 31.2371C899.108 31.2636 898.921 31.2863 898.777 31.3053C898.429 31.3507 898.103 31.4246 897.8 31.5269C897.5 31.6254 897.258 31.775 897.072 31.9757C896.891 32.1727 896.8 32.4417 896.8 32.7826C896.8 33.2485 896.972 33.6007 897.317 33.8394C897.665 34.0742 898.107 34.1917 898.641 34.1917ZM906.224 29.9417V35.1917H904.884V26.4644H906.179V27.828H906.293C906.497 27.3848 906.808 27.0288 907.224 26.7598C907.641 26.4871 908.179 26.3507 908.838 26.3507C909.429 26.3507 909.946 26.472 910.389 26.7144C910.832 26.953 911.177 27.3167 911.423 27.8053C911.67 28.2901 911.793 28.9038 911.793 29.6462V35.1917H910.452V29.7371C910.452 29.0515 910.274 28.5174 909.918 28.1348C909.562 27.7485 909.073 27.5553 908.452 27.5553C908.024 27.5553 907.641 27.6481 907.304 27.8337C906.971 28.0193 906.707 28.2901 906.514 28.6462C906.321 29.0023 906.224 29.4341 906.224 29.9417ZM917.788 35.3735C916.97 35.3735 916.266 35.1803 915.675 34.7939C915.084 34.4076 914.629 33.8754 914.311 33.1973C913.993 32.5193 913.834 31.7447 913.834 30.8735C913.834 29.9871 913.997 29.2049 914.322 28.5269C914.652 27.8451 915.11 27.3129 915.697 26.9303C916.288 26.5439 916.978 26.3507 917.766 26.3507C918.379 26.3507 918.932 26.4644 919.425 26.6917C919.917 26.9189 920.321 27.2371 920.635 27.6462C920.949 28.0553 921.144 28.5326 921.22 29.078H919.879C919.777 28.6803 919.55 28.328 919.197 28.0212C918.849 27.7106 918.379 27.5553 917.788 27.5553C917.266 27.5553 916.807 27.6917 916.413 27.9644C916.023 28.2333 915.718 28.614 915.499 29.1064C915.283 29.5951 915.175 30.1689 915.175 30.828C915.175 31.5023 915.281 32.0894 915.493 32.5894C915.709 33.0894 916.012 33.4776 916.402 33.7542C916.796 34.0307 917.258 34.1689 917.788 34.1689C918.137 34.1689 918.453 34.1083 918.737 33.9871C919.021 33.8659 919.262 33.6917 919.459 33.4644C919.656 33.2371 919.796 32.9644 919.879 32.6462H921.22C921.144 33.1613 920.957 33.6254 920.658 34.0382C920.362 34.4473 919.97 34.7731 919.482 35.0155C918.997 35.2542 918.432 35.3735 917.788 35.3735ZM926.839 35.3735C925.999 35.3735 925.273 35.1879 924.663 34.8167C924.057 34.4417 923.589 33.9189 923.26 33.2485C922.934 32.5742 922.771 31.7901 922.771 30.8962C922.771 30.0023 922.934 29.2144 923.26 28.5326C923.589 27.847 924.048 27.3129 924.635 26.9303C925.226 26.5439 925.915 26.3507 926.703 26.3507C927.158 26.3507 927.607 26.4265 928.05 26.578C928.493 26.7295 928.896 26.9757 929.26 27.3167C929.624 27.6538 929.913 28.1007 930.129 28.6576C930.345 29.2144 930.453 29.9 930.453 30.7144V31.2826H923.726V30.1235H929.089C929.089 29.631 928.991 29.1917 928.794 28.8053C928.601 28.4189 928.324 28.114 927.964 27.8905C927.608 27.667 927.188 27.5553 926.703 27.5553C926.169 27.5553 925.707 27.6879 925.317 27.953C924.93 28.2144 924.633 28.5553 924.425 28.9757C924.216 29.3962 924.112 29.847 924.112 30.328V31.1007C924.112 31.7598 924.226 32.3185 924.453 32.7769C924.684 33.2314 925.004 33.578 925.413 33.8167C925.822 34.0515 926.298 34.1689 926.839 34.1689C927.192 34.1689 927.51 34.1197 927.794 34.0212C928.082 33.9189 928.33 33.7674 928.538 33.5667C928.747 33.3621 928.908 33.1083 929.021 32.8053L930.317 33.1689C930.18 33.6083 929.951 33.9947 929.629 34.328C929.307 34.6576 928.91 34.9151 928.436 35.1007C927.963 35.2826 927.43 35.3735 926.839 35.3735ZM933.834 23.5553V35.1917H932.493V23.5553H933.834Z" fill="#172D35"/>
<rect x="956" y="10.1917" width="57" height="39" rx="3" fill="#D1ED7E"/>
<path d="M973.773 26.4644C973.705 25.8886 973.428 25.4417 972.943 25.1235C972.458 24.8053 971.864 24.6462 971.159 24.6462C970.644 24.6462 970.193 24.7295 969.807 24.8962C969.424 25.0629 969.125 25.292 968.909 25.5837C968.697 25.8754 968.591 26.2068 968.591 26.578C968.591 26.8886 968.665 27.1557 968.812 27.3792C968.964 27.5988 969.157 27.7826 969.392 27.9303C969.627 28.0742 969.873 28.1935 970.131 28.2882C970.388 28.3792 970.625 28.453 970.841 28.5098L972.023 28.828C972.326 28.9076 972.663 29.0174 973.034 29.1576C973.409 29.2977 973.767 29.489 974.108 29.7314C974.453 29.9701 974.737 30.2769 974.96 30.6519C975.184 31.0269 975.295 31.4871 975.295 32.0326C975.295 32.6613 975.131 33.2295 974.801 33.7371C974.475 34.2447 973.998 34.6481 973.369 34.9473C972.744 35.2466 971.985 35.3962 971.091 35.3962C970.258 35.3962 969.536 35.2617 968.926 34.9928C968.32 34.7238 967.843 34.3488 967.494 33.8678C967.15 33.3867 966.955 32.828 966.909 32.1917H968.364C968.402 32.631 968.549 32.9947 968.807 33.2826C969.068 33.5667 969.398 33.7788 969.795 33.9189C970.197 34.0553 970.629 34.1235 971.091 34.1235C971.629 34.1235 972.112 34.0363 972.54 33.8621C972.968 33.6841 973.307 33.4379 973.557 33.1235C973.807 32.8053 973.932 32.4341 973.932 32.0098C973.932 31.6235 973.824 31.3091 973.608 31.0667C973.392 30.8242 973.108 30.6273 972.756 30.4757C972.403 30.3242 972.023 30.1917 971.614 30.078L970.182 29.6689C969.273 29.4076 968.553 29.0345 968.023 28.5496C967.492 28.0648 967.227 27.4303 967.227 26.6462C967.227 25.9947 967.403 25.4265 967.756 24.9417C968.112 24.453 968.589 24.0742 969.188 23.8053C969.79 23.5326 970.462 23.3962 971.205 23.3962C971.955 23.3962 972.621 23.5307 973.205 23.7996C973.788 24.0648 974.25 24.4284 974.591 24.8905C974.936 25.3526 975.117 25.8773 975.136 26.4644H973.773ZM979.999 35.3962C979.446 35.3962 978.944 35.292 978.493 35.0837C978.042 34.8716 977.684 34.5667 977.419 34.1689C977.154 33.7674 977.021 33.2826 977.021 32.7144C977.021 32.2144 977.12 31.8091 977.317 31.4985C977.514 31.1841 977.777 30.9379 978.107 30.7598C978.436 30.5818 978.8 30.4492 979.197 30.3621C979.599 30.2712 980.002 30.1992 980.408 30.1462C980.938 30.078 981.368 30.0269 981.697 29.9928C982.031 29.9549 982.273 29.8924 982.425 29.8053C982.58 29.7182 982.658 29.5667 982.658 29.3507V29.3053C982.658 28.7447 982.504 28.3091 982.197 27.9985C981.894 27.6879 981.434 27.5326 980.817 27.5326C980.177 27.5326 979.675 27.6727 979.311 27.953C978.947 28.2333 978.692 28.5326 978.544 28.8507L977.271 28.3962C977.499 27.8659 977.802 27.453 978.18 27.1576C978.563 26.8583 978.98 26.65 979.43 26.5326C979.885 26.4113 980.332 26.3507 980.771 26.3507C981.052 26.3507 981.374 26.3848 981.737 26.453C982.105 26.5174 982.459 26.6519 982.8 26.8564C983.144 27.061 983.43 27.3697 983.658 27.7826C983.885 28.1954 983.999 28.7485 983.999 29.4417V35.1917H982.658V34.0098H982.589C982.499 34.1992 982.347 34.4019 982.135 34.6178C981.923 34.8337 981.641 35.0174 981.288 35.1689C980.936 35.3204 980.506 35.3962 979.999 35.3962ZM980.203 34.1917C980.733 34.1917 981.18 34.0875 981.544 33.8792C981.911 33.6708 982.188 33.4019 982.374 33.0723C982.563 32.7428 982.658 32.3962 982.658 32.0326V30.8053C982.601 30.8735 982.476 30.936 982.283 30.9928C982.093 31.0458 981.874 31.0932 981.624 31.1348C981.377 31.1727 981.137 31.2068 980.902 31.2371C980.671 31.2636 980.483 31.2863 980.339 31.3053C979.991 31.3507 979.665 31.4246 979.362 31.5269C979.063 31.6254 978.821 31.775 978.635 31.9757C978.453 32.1727 978.362 32.4417 978.362 32.7826C978.362 33.2485 978.535 33.6007 978.879 33.8394C979.228 34.0742 979.669 34.1917 980.203 34.1917ZM993.27 26.4644L990.043 35.1917H988.679L985.452 26.4644H986.906L989.315 33.4189H989.406L991.815 26.4644H993.27ZM998.386 35.3735C997.545 35.3735 996.82 35.1879 996.21 34.8167C995.604 34.4417 995.136 33.9189 994.807 33.2485C994.481 32.5742 994.318 31.7901 994.318 30.8962C994.318 30.0023 994.481 29.2144 994.807 28.5326C995.136 27.847 995.595 27.3129 996.182 26.9303C996.773 26.5439 997.462 26.3507 998.25 26.3507C998.705 26.3507 999.153 26.4265 999.597 26.578C1000.04 26.7295 1000.44 26.9757 1000.81 27.3167C1001.17 27.6538 1001.46 28.1007 1001.68 28.6576C1001.89 29.2144 1002 29.9 1002 30.7144V31.2826H995.273V30.1235H1000.64C1000.64 29.631 1000.54 29.1917 1000.34 28.8053C1000.15 28.4189 999.871 28.114 999.511 27.8905C999.155 27.667 998.735 27.5553 998.25 27.5553C997.716 27.5553 997.254 27.6879 996.864 27.953C996.477 28.2144 996.18 28.5553 995.972 28.9757C995.763 29.3962 995.659 29.847 995.659 30.328V31.1007C995.659 31.7598 995.773 32.3185 996 32.7769C996.231 33.2314 996.551 33.578 996.96 33.8167C997.369 34.0515 997.845 34.1689 998.386 34.1689C998.739 34.1689 999.057 34.1197 999.341 34.0212C999.629 33.9189 999.877 33.7674 1000.09 33.5667C1000.29 33.3621 1000.45 33.1083 1000.57 32.8053L1001.86 33.1689C1001.73 33.6083 1001.5 33.9947 1001.18 34.328C1000.85 34.6576 1000.46 34.9151 999.983 35.1007C999.509 35.2826 998.977 35.3735 998.386 35.3735Z" fill="#172D35"/>
</svg>
